<svg id="Layer_1" data-name="Layer 1" xmlns="http://www.w3.org/2000/svg" viewBox="0 0 600 600"><defs><style>.cls-1{fill:none;}.cls-2{fill:#fff;}.cls-3{fill:#e02337;}</style></defs><rect class="cls-1" width="600" height="600"/><path class="cls-2" d="M17.9,289a15,15,0,0,1,3.37-7.74,49.56,49.56,0,0,1,8.09-7.48l119.73-85.94a7,7,0,0,1,3.59-1.33,5.76,5.76,0,0,1,4.85,1.61A5.59,5.59,0,0,1,159,193l-2.76,18.51a16.76,16.76,0,0,1-4,8.46,45,45,0,0,1-8.43,7.51L48.17,296.45l81,53.07q10,6.24,8.64,14.13l-1.26,12.62a8.55,8.55,0,0,1-2.9,5.33,8,8,0,0,1-5.17,2.48,5.41,5.41,0,0,1-3.43-.71L24.36,316.81A17.75,17.75,0,0,1,17.8,311a12.71,12.71,0,0,1-1.68-7.63Z"/><path class="cls-2" d="M582,287a14.7,14.7,0,0,1-3,8,44.19,44.19,0,0,1-8.13,7.14L451.13,388.15a8.74,8.74,0,0,1-3.92,1.36,5.76,5.76,0,0,1-4.85-1.6,6.33,6.33,0,0,1-1.1-5l2.12-18.11q1.31-8.22,12.74-16l96.64-69L471,225.43q-10-6.23-9-14.09l1.68-11.64a7.57,7.57,0,0,1,2.23-5.27,9.29,9.29,0,0,1,5.5-2.51,7,7,0,0,1,3.76.68l100.7,66.56q7.49,4.75,8,10.46a10.32,10.32,0,0,1-.07,3.05Z"/><path class="cls-3" d="M406.47,158.06q5.13-10.6,15.82-11.54l11.69-1q6-.53,6.54,5.51a8.91,8.91,0,0,1-1,4.49L293.21,441.94q-5.15,10.6-15.83,11.54l-11.69,1q-6,.53-6.53-5.51a8.94,8.94,0,0,1,.95-4.48Z"/></svg>