<svg width="19" height="19" viewBox="0 0 19 19" fill="none" xmlns="http://www.w3.org/2000/svg">
<path fill-rule="evenodd" clip-rule="evenodd" d="M0.791748 9.49996C0.791748 4.69048 4.6906 0.791626 9.50008 0.791626C14.3096 0.791626 18.2084 4.69048 18.2084 9.49996C18.2084 10.3667 17.7096 10.9301 17.1218 11.2707C16.5789 11.5853 15.8887 11.7578 15.2775 11.8902C15.0826 11.9324 14.8939 11.9709 14.7108 12.0082C14.2727 12.0976 13.8667 12.1805 13.4841 12.2918C12.9354 12.4514 12.6208 12.6229 12.4677 12.7958L11.8751 12.2708L12.4677 12.7958C12.2414 13.0512 12.0962 13.4158 12.0016 13.9134C11.9341 14.2684 11.9026 14.6175 11.8684 14.996C11.8526 15.1709 11.8362 15.3522 11.8154 15.5432C11.7572 16.0789 11.6603 16.7362 11.3352 17.2602C11.1608 17.5414 10.918 17.7909 10.5871 17.9641C10.2607 18.1349 9.89311 18.2083 9.50008 18.2083C4.6906 18.2083 0.791748 14.3094 0.791748 9.49996ZM9.50008 2.37496C5.56505 2.37496 2.37508 5.56493 2.37508 9.49996C2.37508 13.435 5.56505 16.625 9.50008 16.625C9.69686 16.625 9.80047 16.5887 9.85285 16.5613C9.9008 16.5362 9.9443 16.4988 9.98978 16.4255C10.1046 16.2404 10.182 15.9182 10.2414 15.3721C10.2556 15.2409 10.2689 15.0946 10.283 14.9389C10.3203 14.5281 10.3635 14.0522 10.4461 13.6176C10.5642 12.9969 10.7836 12.309 11.2825 11.7458C11.7482 11.2202 12.4357 10.9478 13.042 10.7714C13.491 10.6408 13.997 10.5376 14.4593 10.4432C14.6278 10.4088 14.7905 10.3756 14.9425 10.3427C15.562 10.2085 16.0252 10.0761 16.328 9.90071C16.5859 9.7513 16.6251 9.63972 16.6251 9.49996C16.6251 5.56493 13.4351 2.37496 9.50008 2.37496ZM9.10425 5.54163C9.10425 4.44854 9.99033 3.56246 11.0834 3.56246C12.1765 3.56246 13.0626 4.44854 13.0626 5.54163C13.0626 6.63471 12.1765 7.52079 11.0834 7.52079C9.99033 7.52079 9.10425 6.63471 9.10425 5.54163ZM11.0834 5.14579C10.8648 5.14579 10.6876 5.323 10.6876 5.54163C10.6876 5.76026 10.8648 5.93746 11.0834 5.93746C11.302 5.93746 11.4792 5.76026 11.4792 5.54163C11.4792 5.323 11.302 5.14579 11.0834 5.14579ZM4.35425 7.12496C4.35425 6.03188 5.24033 5.14579 6.33342 5.14579C7.4265 5.14579 8.31258 6.03188 8.31258 7.12496C8.31258 8.21804 7.4265 9.10413 6.33342 9.10413C5.24033 9.10413 4.35425 8.21804 4.35425 7.12496ZM6.33342 6.72913C6.11478 6.72913 5.93758 6.90633 5.93758 7.12496C5.93758 7.34359 6.11478 7.52079 6.33342 7.52079C6.55205 7.52079 6.72925 7.34359 6.72925 7.12496C6.72925 6.90633 6.55205 6.72913 6.33342 6.72913ZM4.75008 12.2708C4.75008 11.1777 5.63617 10.2916 6.72925 10.2916C7.82233 10.2916 8.70842 11.1777 8.70842 12.2708C8.70842 13.3639 7.82233 14.25 6.72925 14.25C5.63617 14.25 4.75008 13.3639 4.75008 12.2708ZM6.72925 11.875C6.51062 11.875 6.33342 12.0522 6.33342 12.2708C6.33342 12.4894 6.51062 12.6666 6.72925 12.6666C6.94788 12.6666 7.12508 12.4894 7.12508 12.2708C7.12508 12.0522 6.94788 11.875 6.72925 11.875Z" fill="#F44B74"/>
</svg>
