<svg width="19" height="19" viewBox="0 0 19 19" fill="none" xmlns="http://www.w3.org/2000/svg">
<path fill-rule="evenodd" clip-rule="evenodd" d="M0.791748 9.50008C0.791748 4.6906 4.6906 0.791748 9.50008 0.791748C14.3096 0.791748 18.2084 4.6906 18.2084 9.50008C18.2084 10.3668 17.7096 10.9303 17.1218 11.2708C16.5789 11.5854 15.8887 11.758 15.2775 11.8903C15.0826 11.9325 14.8939 11.971 14.7108 12.0084C14.2727 12.0978 13.8667 12.1806 13.4841 12.2919C12.9354 12.4515 12.6208 12.6231 12.4677 12.7959L11.8751 12.2709L12.4677 12.7959C12.2414 13.0513 12.0962 13.416 12.0016 13.9135C11.9341 14.2685 11.9026 14.6176 11.8684 14.9961C11.8526 15.1711 11.8362 15.3523 11.8154 15.5433C11.7572 16.0791 11.6603 16.7363 11.3352 17.2603C11.1608 17.5415 10.918 17.791 10.5871 17.9642C10.2607 18.135 9.89311 18.2084 9.50008 18.2084C4.6906 18.2084 0.791748 14.3096 0.791748 9.50008ZM9.50008 2.37508C5.56505 2.37508 2.37508 5.56505 2.37508 9.50008C2.37508 13.4351 5.56505 16.6251 9.50008 16.6251C9.69686 16.6251 9.80047 16.5888 9.85285 16.5614C9.9008 16.5363 9.9443 16.4989 9.98978 16.4256C10.1046 16.2406 10.182 15.9183 10.2414 15.3722C10.2556 15.241 10.2689 15.0947 10.283 14.9391C10.3203 14.5282 10.3635 14.0524 10.4461 13.6177C10.5642 12.997 10.7836 12.3091 11.2825 11.746C11.7482 11.2203 12.4357 10.9479 13.042 10.7716C13.491 10.641 13.997 10.5377 14.4593 10.4433C14.6278 10.4089 14.7905 10.3757 14.9425 10.3428C15.562 10.2087 16.0252 10.0763 16.328 9.90084C16.5859 9.75143 16.6251 9.63984 16.6251 9.50008C16.6251 5.56505 13.4351 2.37508 9.50008 2.37508ZM9.10425 5.54175C9.10425 4.44867 9.99033 3.56258 11.0834 3.56258C12.1765 3.56258 13.0626 4.44867 13.0626 5.54175C13.0626 6.63483 12.1765 7.52092 11.0834 7.52092C9.99033 7.52092 9.10425 6.63483 9.10425 5.54175ZM11.0834 5.14592C10.8648 5.14592 10.6876 5.32312 10.6876 5.54175C10.6876 5.76038 10.8648 5.93758 11.0834 5.93758C11.302 5.93758 11.4792 5.76038 11.4792 5.54175C11.4792 5.32312 11.302 5.14592 11.0834 5.14592ZM4.35425 7.12508C4.35425 6.032 5.24033 5.14592 6.33342 5.14592C7.4265 5.14592 8.31258 6.032 8.31258 7.12508C8.31258 8.21816 7.4265 9.10425 6.33342 9.10425C5.24033 9.10425 4.35425 8.21816 4.35425 7.12508ZM6.33342 6.72925C6.11478 6.72925 5.93758 6.90645 5.93758 7.12508C5.93758 7.34371 6.11478 7.52092 6.33342 7.52092C6.55205 7.52092 6.72925 7.34371 6.72925 7.12508C6.72925 6.90645 6.55205 6.72925 6.33342 6.72925ZM4.75008 12.2709C4.75008 11.1778 5.63617 10.2917 6.72925 10.2917C7.82233 10.2917 8.70842 11.1778 8.70842 12.2709C8.70842 13.364 7.82233 14.2501 6.72925 14.2501C5.63617 14.2501 4.75008 13.364 4.75008 12.2709ZM6.72925 11.8751C6.51062 11.8751 6.33342 12.0523 6.33342 12.2709C6.33342 12.4895 6.51062 12.6667 6.72925 12.6667C6.94788 12.6667 7.12508 12.4895 7.12508 12.2709C7.12508 12.0523 6.94788 11.8751 6.72925 11.8751Z" fill="white"/>
</svg>
