<svg width="375" height="421" viewBox="0 0 375 421" fill="none" xmlns="http://www.w3.org/2000/svg">
<path d="M388.779 326.284C362.606 326.924 332.817 352.949 302.712 351.613C271.462 350.299 263.797 313.03 220.803 296.97C161.749 275.02 147.38 355.827 116.971 360.74C99.5265 363.559 87.3741 350.348 52.7073 354.318C-5.6917 360.817 -8.20787 420.454 -8.20787 420.454" stroke="#F44B74" stroke-miterlimit="10"/>
<path d="M2.09348 343.453C2.09348 343.453 -2.93641 308.444 -22.2968 285.389" stroke="black" stroke-width="1.5" stroke-miterlimit="10"/>
<path d="M208.129 225.522C209.838 219.639 207.56 213.093 202.53 209.583C197.026 205.693 190.098 206.167 185.163 209.867C185.352 203.795 181.746 197.818 175.388 195.541C169.598 193.453 162.955 195.351 159.159 200.19C155.932 204.364 155.268 209.393 156.597 213.757L166.656 245.541L198.449 235.484C202.91 234.061 206.611 230.55 208.129 225.522Z" fill="#F44B74"/>
<path d="M171.307 237.097C173.489 230.361 180.417 210.721 158.874 200" stroke="#191919" stroke-width="0.75" stroke-miterlimit="10"/>
<path d="M174.059 225.142C187.82 215.465 200.347 226.755 201.486 234.345" stroke="#191919" stroke-width="0.75" stroke-miterlimit="10"/>
<path d="M171.971 212.144C174.723 209.772 186.112 209.867 186.491 221.442" stroke="#191919" stroke-width="0.75" stroke-miterlimit="10"/>
<path d="M163.62 202.657C163.62 202.657 175.482 195.446 181.841 212.334" stroke="#191919" stroke-width="0.75" stroke-miterlimit="10"/>
<path d="M198.164 227.514C206.706 216.698 194.179 201.423 182.316 212.713" stroke="#191919" stroke-width="0.75" stroke-miterlimit="10"/>
<path d="M164.284 234.345C164.758 234.061 165.233 234.156 165.612 234.345C166.751 234.725 167.511 235.769 167.89 237.192C167.985 236.433 168.175 235.674 168.649 235.009C169.598 233.586 171.307 233.776 171.971 234.82C172.635 235.958 172.54 237.571 172.446 239.089C172.446 239.184 172.446 239.279 172.446 239.374C172.54 239.658 172.92 239.564 173.205 239.469C175.008 238.994 176.621 240.133 177.001 242.03C177.001 242.315 177.096 242.6 176.906 242.884C176.621 243.454 176.052 243.738 175.482 243.833C172.54 244.592 166.087 246.584 166.087 246.584C166.087 246.584 163.809 240.987 163.24 238.33C163.05 237.666 162.955 237.002 163.05 236.243C163.24 235.579 163.714 234.725 164.284 234.345Z" fill="black"/>
<path d="M147.486 335.863C147.486 335.863 145.493 279.507 169.219 241.271" stroke="black" stroke-width="1.5" stroke-miterlimit="10"/>
<path d="M185.258 258.634C180.323 257.021 172.161 255.977 168.175 256.262C162.576 256.641 157.546 260.816 159.634 265.37C163.904 272.391 178.424 267.457 185.258 258.634Z" fill="black"/>
<path d="M142.361 241.935C142.741 247.059 145.018 255.028 146.916 258.634C149.479 263.662 155.268 266.698 158.685 262.903C163.335 256.262 153.18 244.877 142.361 241.935Z" fill="black"/>
<path d="M217.43 269.26C219.233 264.896 217.904 259.677 214.393 256.546C210.407 253.131 205.092 252.941 201.012 255.408C201.581 250.759 199.303 245.825 194.558 243.643C190.287 241.651 184.973 242.6 181.746 246.015C178.899 248.956 178.045 252.751 178.804 256.262L184.119 281.404L209.268 276.091C212.685 275.427 215.911 272.96 217.43 269.26Z" fill="#F44B74"/>
<path d="M188.2 275.427C190.382 270.398 197.215 255.787 181.461 246.015" stroke="#191919" stroke-width="0.75" stroke-miterlimit="10"/>
<path d="M191.142 266.414C202.435 259.962 211.261 269.639 211.546 275.522" stroke="#191919" stroke-width="0.75" stroke-miterlimit="10"/>
<path d="M190.572 256.262C192.945 254.649 201.676 255.598 201.106 264.516" stroke="#191919" stroke-width="0.75" stroke-miterlimit="10"/>
<path d="M184.878 248.292C184.878 248.292 194.558 243.643 198.164 257.116" stroke="#191919" stroke-width="0.75" stroke-miterlimit="10"/>
<path d="M209.553 270.019C216.955 262.334 208.509 249.62 198.449 257.4" stroke="#191919" stroke-width="0.75" stroke-miterlimit="10"/>
<path d="M182.98 272.77C183.359 272.581 183.739 272.675 184.024 272.865C184.878 273.245 185.447 274.099 185.542 275.237C185.732 274.668 185.922 274.099 186.301 273.624C187.156 272.581 188.484 272.865 188.864 273.719C189.243 274.573 189.054 275.901 188.959 277.04C188.959 277.135 188.959 277.23 188.959 277.324C189.054 277.514 189.244 277.514 189.528 277.419C190.952 277.23 192.091 278.178 192.186 279.696C192.186 279.886 192.185 280.171 192.091 280.36C191.901 280.835 191.331 280.93 190.952 281.025C188.674 281.309 183.549 282.448 183.549 282.448C183.549 282.448 182.221 277.989 181.936 275.806C181.841 275.332 181.841 274.763 181.936 274.194C182.126 273.529 182.505 272.96 182.98 272.77Z" fill="black"/>
<path d="M162.386 349.526C162.386 349.526 165.138 306.072 186.207 278.463" stroke="black" stroke-width="1.5" stroke-miterlimit="10"/>
<path d="M197.31 292.979C193.704 291.366 187.44 289.943 184.308 289.848C179.943 289.753 175.767 292.505 177.001 296.205C179.848 301.898 191.331 299.241 197.31 292.979Z" fill="black"/>
<path d="M165.518 276.945C165.423 280.93 166.561 287.192 167.7 290.133C169.314 294.212 173.489 296.964 176.431 294.307C180.607 289.564 173.679 279.981 165.518 276.945Z" fill="black"/>
<path d="M90.7335 269.26C88.9303 264.896 90.2589 259.677 93.7704 256.546C97.7563 253.131 103.071 252.941 107.152 255.408C106.582 250.759 108.86 245.825 113.605 243.643C117.876 241.651 123.19 242.6 126.417 246.015C129.264 248.956 130.118 252.751 129.359 256.262L124.045 281.404L98.8952 276.091C95.3837 275.427 92.2519 272.96 90.7335 269.26Z" fill="#F44B74"/>
<path d="M119.964 275.427C117.781 270.398 110.948 255.787 126.702 246.015" stroke="#191919" stroke-width="0.75" stroke-miterlimit="10"/>
<path d="M116.927 266.414C105.633 259.962 96.8073 269.639 96.5226 275.522" stroke="#191919" stroke-width="0.75" stroke-miterlimit="10"/>
<path d="M117.591 256.262C115.219 254.649 106.487 255.598 107.057 264.516" stroke="#191919" stroke-width="0.75" stroke-miterlimit="10"/>
<path d="M123.285 248.292C123.285 248.292 113.605 243.643 109.999 257.116" stroke="#191919" stroke-width="0.75" stroke-miterlimit="10"/>
<path d="M98.5155 270.019C91.113 262.334 99.5595 249.62 109.619 257.4" stroke="#191919" stroke-width="0.75" stroke-miterlimit="10"/>
<path d="M125.089 272.77C124.709 272.581 124.329 272.675 124.045 272.865C123.191 273.245 122.621 274.099 122.526 275.237C122.336 274.668 122.147 274.099 121.767 273.624C120.913 272.581 119.584 272.865 119.205 273.719C118.825 274.573 119.015 275.901 119.11 277.04C119.11 277.135 119.11 277.23 119.11 277.324C119.015 277.514 118.825 277.514 118.54 277.419C117.117 277.23 115.978 278.178 115.883 279.696C115.883 279.886 115.883 280.171 115.978 280.36C116.168 280.835 116.737 280.93 117.117 281.025C119.394 281.309 124.519 282.448 124.519 282.448C124.519 282.448 125.848 277.989 126.133 275.806C126.227 275.332 126.227 274.763 126.133 274.194C126.038 273.529 125.658 272.96 125.089 272.77Z" fill="black"/>
<path d="M145.683 349.526C145.683 349.526 142.93 306.072 121.862 278.463" stroke="black" stroke-width="1.5" stroke-miterlimit="10"/>
<path d="M110.853 292.979C114.459 291.366 120.723 289.943 123.855 289.848C128.22 289.753 132.396 292.505 131.162 296.205C128.315 301.898 116.737 299.241 110.853 292.979Z" fill="black"/>
<path d="M142.551 276.945C142.646 280.93 141.507 287.192 140.368 290.133C138.755 294.212 134.579 296.964 131.637 294.307C127.556 289.564 134.484 279.981 142.551 276.945Z" fill="black"/>
<path d="M233.089 295.636L372.502 327.799C377.437 328.937 382.372 325.901 383.511 320.873L444.534 56.6414C445.673 51.7078 442.636 46.7742 437.606 45.6357L298.193 13.3776C293.258 12.2391 288.323 15.37 287.184 20.3036L226.161 284.535C225.022 289.564 228.154 294.497 233.089 295.636Z" fill="#191919" stroke="white" stroke-width="1.5" stroke-miterlimit="10" stroke-linejoin="round"/>
<path d="M382.942 296.774C382.847 296.774 382.847 296.774 382.752 296.774L237.36 263.188C237.17 263.188 236.98 262.998 236.885 262.903C236.79 262.808 236.79 262.524 236.79 262.334L289.177 35.4839C289.272 35.1992 289.557 34.9146 289.841 34.9146C289.936 34.9146 289.936 34.9146 290.031 34.9146L435.423 68.5009C435.613 68.5009 435.803 68.6907 435.898 68.7856C435.993 68.9753 435.993 69.1651 435.993 69.3548L383.606 296.205C383.606 296.585 383.321 296.774 382.942 296.774Z" fill="#E2E2E2"/>
<path d="M289.936 35.6736L435.329 69.26L382.942 296.11L237.549 262.524L289.936 35.6736ZM289.936 34.2505C289.272 34.2505 288.702 34.7249 288.513 35.389L236.126 262.239C235.936 262.998 236.411 263.757 237.17 263.947L382.562 297.533C382.657 297.533 382.752 297.533 382.847 297.533C383.132 297.533 383.416 297.438 383.606 297.343C383.891 297.154 384.175 296.869 384.27 296.49L436.657 69.6395C436.752 69.26 436.657 68.8805 436.467 68.5958C436.278 68.3112 435.993 68.0266 435.613 67.9317L290.221 34.2505C290.126 34.2505 290.031 34.2505 289.936 34.2505Z" fill="white"/>
<path d="M301.42 292.505C300.755 295.541 302.653 298.577 305.69 299.241C308.727 299.905 311.764 298.008 312.428 294.972C313.093 291.936 311.195 288.899 308.158 288.235C305.121 287.571 302.084 289.469 301.42 292.505Z" stroke="white" stroke-miterlimit="10" stroke-linecap="round" stroke-linejoin="round"/>
<path d="M378.291 45.0664L351.813 38.9943" stroke="white" stroke-width="3" stroke-miterlimit="10" stroke-linecap="round" stroke-linejoin="round"/>
<path opacity="0.45" d="M316.414 101.613L415.304 124.478L408.566 115.37L411.792 101.233C414.545 89.4687 407.142 77.7989 395.469 75.0474L326.189 59.1082C314.421 56.3567 302.748 63.7571 299.996 75.4269C297.339 87.1916 304.741 98.8615 316.414 101.613Z" fill="#8C8C8C"/>
<path d="M396.418 86.2429L318.312 68.2163" stroke="#E2E2E2" stroke-width="1.5" stroke-miterlimit="10" stroke-linecap="round" stroke-linejoin="round"/>
<path d="M329.796 78.463L316.604 75.4269" stroke="#E2E2E2" stroke-width="1.5" stroke-miterlimit="10" stroke-linecap="round" stroke-linejoin="round"/>
<path d="M394.71 93.4535L340.425 80.9298" stroke="#E2E2E2" stroke-width="1.5" stroke-miterlimit="10" stroke-linecap="round" stroke-linejoin="round"/>
<path d="M393.096 100.664L314.991 82.6376" stroke="#E2E2E2" stroke-width="1.5" stroke-miterlimit="10" stroke-linecap="round" stroke-linejoin="round"/>
<path d="M391.388 107.875L353.522 99.1461" stroke="#E2E2E2" stroke-width="1.5" stroke-miterlimit="10" stroke-linecap="round" stroke-linejoin="round"/>
<path opacity="0.45" d="M278.073 253.89L376.963 276.755L370.225 267.647L373.451 253.51C376.204 241.746 368.801 230.076 357.128 227.325L287.848 211.385C276.08 208.634 264.407 216.034 261.655 227.704C258.998 239.469 266.305 251.139 278.073 253.89Z" fill="#8C8C8C"/>
<path d="M358.077 238.52L279.971 220.493" stroke="#E2E2E2" stroke-width="1.5" stroke-miterlimit="10" stroke-linecap="round" stroke-linejoin="round"/>
<path d="M291.455 230.74L278.263 227.704" stroke="#E2E2E2" stroke-width="1.5" stroke-miterlimit="10" stroke-linecap="round" stroke-linejoin="round"/>
<path d="M356.369 245.731L302.084 233.207" stroke="#E2E2E2" stroke-width="1.5" stroke-miterlimit="10" stroke-linecap="round" stroke-linejoin="round"/>
<path d="M354.755 252.941L276.65 234.915" stroke="#E2E2E2" stroke-width="1.5" stroke-miterlimit="10" stroke-linecap="round" stroke-linejoin="round"/>
<path d="M353.047 260.152L315.181 251.423" stroke="#E2E2E2" stroke-width="1.5" stroke-miterlimit="10" stroke-linecap="round" stroke-linejoin="round"/>
<path opacity="0.45" d="M365.859 200.664L266.969 177.799L276.934 172.581L280.161 158.444C282.913 146.679 294.586 139.374 306.354 142.125L375.634 158.065C387.402 160.816 394.71 172.486 391.958 184.25C389.3 196.015 377.627 203.321 365.859 200.664Z" fill="#8C8C8C"/>
<path d="M300.755 151.898L378.766 169.924" stroke="#E2E2E2" stroke-width="1.5" stroke-miterlimit="10" stroke-linecap="round" stroke-linejoin="round"/>
<path d="M363.961 174.004L377.153 177.04" stroke="#E2E2E2" stroke-width="1.5" stroke-miterlimit="10" stroke-linecap="round" stroke-linejoin="round"/>
<path d="M299.047 159.013L353.332 171.537" stroke="#E2E2E2" stroke-width="1.5" stroke-miterlimit="10" stroke-linecap="round" stroke-linejoin="round"/>
<path d="M297.434 166.224L375.444 184.25" stroke="#E2E2E2" stroke-width="1.5" stroke-miterlimit="10" stroke-linecap="round" stroke-linejoin="round"/>
<path d="M295.725 173.435L333.687 182.163" stroke="#E2E2E2" stroke-width="1.5" stroke-miterlimit="10" stroke-linecap="round" stroke-linejoin="round"/>
<path d="M265.166 313.852L266.02 335.958C266.02 335.958 247.894 346.584 247.894 346.869C247.894 347.154 265.166 347.723 265.166 347.723L272.759 344.023H280.256C281.11 344.023 281.774 343.169 281.585 342.315L280.066 335.484L282.723 312.239" fill="#76473F"/>
<path d="M249.128 344.307C251.88 342.695 262.034 337.666 262.034 337.666L272.759 343.928H281.964V349.241H273.897V345.256H272.759C272.379 345.256 271.904 345.351 271.62 345.636L267.634 348.767C267.159 349.146 266.685 349.241 266.115 349.241C266.115 349.241 250.361 349.241 247.989 349.241C245.426 349.241 244.952 346.679 249.128 344.307Z" fill="#F44B74"/>
<path d="M276.555 344.972L280.92 338.994L280.446 336.812L275.226 343.928L276.555 344.972Z" fill="#F44B74"/>
<path d="M324.007 104.364C331.314 113.093 338.906 130.835 338.527 138.805C338.052 151.328 326.379 181.12 326.379 181.12L322.868 176.565L330.935 138.805C330.935 138.805 309.676 119.07 304.551 115.18C299.521 111.195 293.922 99.5256 305.311 94.4023C313.567 90.6072 320.59 100.38 324.007 104.364Z" fill="#76473F"/>
<path d="M300.47 167.932C300.47 167.932 299.521 231.404 303.792 247.154C306.354 256.736 318.502 281.214 318.502 281.214L366.239 292.22C366.239 292.22 349.346 267.362 334.826 243.074C334.826 229.032 336.249 219.545 337.673 192.505C341.469 173.435 337.673 169.07 335.68 162.429" fill="#F44B74"/>
<path d="M333.687 284.725C333.687 284.725 315.465 249.526 312.428 239.184C310.91 234.061 309.391 170.588 309.391 170.588" stroke="black" stroke-width="0.75" stroke-miterlimit="10"/>
<path d="M336.249 162.049C340.994 169.26 348.681 184.44 331.789 201.423C318.597 215.37 298.952 245.446 298.952 245.446L305.216 324.383L259.187 319.165C259.187 319.165 261.465 257.021 266.305 236.148C270.671 217.268 305.026 172.77 305.026 172.77L305.595 166.319" fill="#F44B74"/>
<path d="M318.502 171.822C318.312 174.004 317.648 176.755 316.13 179.317C312.618 185.294 282.154 233.112 281.68 238.615C279.781 258.254 279.117 321.442 279.117 321.442" stroke="black" stroke-width="0.75" stroke-miterlimit="10"/>
<path d="M300.375 172.391C300.375 172.391 315.465 175.522 338.527 165.844" stroke="black" stroke-width="0.75" stroke-miterlimit="10"/>
<path d="M324.671 170.493C324.671 170.493 323.627 166.319 323.247 164.706" stroke="black" stroke-width="0.75" stroke-miterlimit="10"/>
<path d="M335.585 166.888C335.585 166.888 333.402 162.334 332.927 161.86" stroke="black" stroke-width="0.75" stroke-miterlimit="10"/>
<path d="M313.567 183.112C313.567 183.112 311.859 178.368 311.384 176.471C310.91 174.573 311.005 172.676 311.005 172.676" stroke="black" stroke-width="0.75" stroke-miterlimit="10"/>
<path d="M270.291 248.292C270.291 248.292 275.226 274.763 277.409 283.586" stroke="black" stroke-width="0.75" stroke-miterlimit="10"/>
<path d="M267.064 249.526C267.064 249.526 267.634 263.947 268.203 268.786" stroke="black" stroke-width="0.75" stroke-miterlimit="10"/>
<path d="M342.133 178.843L335.49 178.178L332.548 189.469C332.453 189.943 332.453 190.417 332.643 190.892L335.49 197.059" stroke="black" stroke-width="0.75" stroke-miterlimit="10"/>
<path d="M342.133 180.266L340.994 180.076" stroke="black" stroke-width="0.75" stroke-miterlimit="10"/>
<path d="M340.14 180.076L338.337 179.886" stroke="black" stroke-width="0.75" stroke-miterlimit="10" stroke-dasharray="1.46 1.46"/>
<path d="M337.957 179.791L336.819 179.696L336.534 180.835" stroke="black" stroke-width="0.75" stroke-miterlimit="10"/>
<path d="M336.154 182.353L334.351 189.753C334.256 190.228 334.256 190.607 334.446 191.082L335.68 193.928" stroke="black" stroke-width="0.75" stroke-miterlimit="10" stroke-dasharray="2.81 2.81"/>
<path d="M336.154 194.592L336.629 195.731" stroke="black" stroke-width="0.75" stroke-miterlimit="10"/>
<path d="M300.186 158.634C300.186 158.634 300.471 161.765 300.471 168.027C309.391 169.45 330.175 165.085 336.249 162.144C336.249 162.144 334.161 158.159 332.738 153.605C331.789 147.154 308.537 146.774 308.537 146.774L300.186 158.634Z" fill="#76473F"/>
<path d="M305.121 163.757C305.405 164.516 305.405 165.465 305.026 166.224" stroke="#76473F" stroke-width="0.75" stroke-miterlimit="10"/>
<path d="M305.595 96.6793C302.179 99.0512 294.966 111.86 294.966 111.86C294.966 111.86 288.133 120.304 289.177 126.186C290.695 134.061 295.63 137.571 296.105 139.089C297.813 144.213 300.186 160.247 300.186 160.247C300.186 160.247 318.882 161.195 333.592 155.123C329.036 136.812 337.578 124.668 329.606 108.824C325.715 101.139 315.275 94.0228 315.275 94.0228" fill="#0F0F0F"/>
<path d="M248.368 129.791C248.179 129.696 242.769 126.85 241.82 125.901C240.871 124.953 237.075 120.114 237.834 119.545C238.593 118.975 241.82 122.676 241.82 122.676L246.945 125.996" fill="#F28B7C"/>
<path d="M243.813 123.15L244.952 122.011C244.952 122.011 240.776 116.793 241.345 116.034C241.915 115.275 246.091 120.493 246.091 120.493C246.091 120.493 249.507 121.632 251.215 122.676C252.924 123.719 255.106 126.945 255.106 126.945L252.165 131.784" fill="#F28B7C"/>
<path d="M315.845 103.89C303.792 114.137 287.279 137.381 287.279 137.381L253.873 125.712L251.5 132.827C251.5 132.827 280.446 154.649 292.214 151.708C299.521 149.905 311.764 137.951 319.451 127.514C321.824 127.704 325.145 125.996 326.284 123.814C329.891 117.457 327.708 93.7381 315.845 103.89Z" fill="#76473F"/>
<path d="M251.69 129.981L249.602 125.237C249.507 125.047 249.317 124.763 249.128 124.573L238.403 114.516C238.403 114.516 237.834 115.085 237.739 115.18C237.739 115.18 237.739 115.275 237.739 115.37L239.258 120.683C239.353 120.873 239.542 121.157 239.732 121.347L250.646 130.55C250.836 130.645 250.931 130.74 251.026 130.645L251.69 129.981Z" fill="#0A172B"/>
<path d="M251.69 129.791L250.172 124.573C250.077 124.383 249.887 124.099 249.697 123.909L238.688 114.611C238.403 114.421 238.309 114.421 238.309 114.706L239.827 120.019C239.922 120.209 240.112 120.493 240.302 120.683L251.215 129.886C251.595 130.076 251.785 130.076 251.69 129.791Z" fill="#00276F"/>
<path d="M248.938 123.245L250.741 129.412L241.156 121.252L239.447 115.18L248.938 123.245Z" fill="#8DADE0"/>
<path d="M250.361 126.66C250.551 126.755 250.646 126.85 250.646 126.755C250.646 126.66 250.551 126.471 250.361 126.281C250.172 126.186 250.077 126.091 250.077 126.186C250.077 126.376 250.172 126.565 250.361 126.66Z" fill="#8DADE0"/>
<path d="M239.447 117.078L239.827 118.121" stroke="#8DADE0" stroke-width="0.25" stroke-miterlimit="10" stroke-linecap="round"/>
<path opacity="0.55" d="M242.01 118.027C242.105 118.121 242.2 118.216 242.2 118.121C242.2 118.027 242.105 117.837 241.915 117.742C241.82 117.647 241.725 117.552 241.725 117.647C241.725 117.647 241.915 117.837 242.01 118.027Z" fill="#8DADE0"/>
<path opacity="0.51" d="M241.915 121.157L240.966 117.932C240.871 117.552 241.156 117.552 241.44 117.837L242.2 118.501L242.295 118.406L243.433 122.296C243.528 122.675 243.244 122.675 242.959 122.391L242.484 122.011C242.2 121.821 242.01 121.442 241.915 121.157Z" fill="white"/>
<path d="M241.535 118.311L242.484 121.537" stroke="#8DADE0" stroke-width="0.25" stroke-miterlimit="10" stroke-linecap="round"/>
<path d="M242.2 118.786L242.674 120.683" stroke="#8DADE0" stroke-width="0.25" stroke-miterlimit="10" stroke-linecap="round"/>
<path opacity="0.55" d="M247.989 122.865C248.084 122.96 248.179 123.055 248.179 122.96C248.179 122.865 248.084 122.676 247.894 122.581C247.799 122.486 247.704 122.391 247.704 122.486C247.704 122.581 247.799 122.77 247.989 122.865Z" fill="#8DADE0"/>
<path opacity="0.51" d="M247.799 125.996L246.85 122.77C246.755 122.391 247.04 122.391 247.324 122.675L248.084 123.34L248.179 123.245L249.317 127.135C249.412 127.514 249.128 127.514 248.843 127.229L248.368 126.85C248.179 126.66 247.894 126.281 247.799 125.996Z" fill="white"/>
<path d="M247.514 123.245L248.368 126.471" stroke="#8DADE0" stroke-width="0.25" stroke-miterlimit="10" stroke-linecap="round"/>
<path d="M248.084 123.719L248.653 125.617" stroke="#8DADE0" stroke-width="0.25" stroke-miterlimit="10" stroke-linecap="round"/>
<path opacity="0.55" d="M246.28 125.427C246.375 125.522 246.47 125.617 246.47 125.522C246.47 125.427 246.375 125.237 246.186 125.142C246.091 125.047 245.996 124.953 245.996 125.047C245.996 125.047 246.091 125.237 246.28 125.427Z" fill="#8DADE0"/>
<path opacity="0.51" d="M244.667 123.245L243.718 119.734C243.623 119.45 243.813 119.45 244.098 119.639L244.857 120.304C245.047 120.493 245.237 120.778 245.331 120.968L246.565 125.237L246.28 124.763L245.237 123.814C244.952 123.719 244.762 123.435 244.667 123.245Z" fill="white"/>
<path d="M244.287 120.209L245.237 123.529" stroke="#8DADE0" stroke-width="0.25" stroke-miterlimit="10" stroke-linecap="round"/>
<path d="M244.952 120.778L245.426 122.581" stroke="#8DADE0" stroke-width="0.25" stroke-miterlimit="10" stroke-linecap="round"/>
<path d="M245.521 122.96L245.711 123.624" stroke="#8DADE0" stroke-width="0.25" stroke-miterlimit="10" stroke-linecap="round"/>
<mask id="mask0_193_612" style="mask-type:luminance" maskUnits="userSpaceOnUse" x="238" y="114" width="14" height="17">
<path d="M251.69 129.791L250.172 124.573C250.077 124.383 249.887 124.099 249.697 123.909L238.688 114.611C238.403 114.421 238.309 114.421 238.309 114.706L239.827 120.019C239.922 120.209 240.112 120.493 240.302 120.683L251.215 129.886C251.595 130.076 251.785 130.076 251.69 129.791Z" fill="white"/>
</mask>
<g mask="url(#mask0_193_612)">
<path d="M238.593 118.311L239.068 119.639L252.354 127.23L251.88 125.901L238.593 118.311Z" fill="url(#paint0_linear_193_612)"/>
</g>
<mask id="mask1_193_612" style="mask-type:luminance" maskUnits="userSpaceOnUse" x="238" y="114" width="14" height="17">
<path d="M251.69 129.791L250.172 124.573C250.077 124.383 249.887 124.099 249.697 123.909L238.688 114.611C238.403 114.421 238.309 114.421 238.309 114.706L239.827 120.019C239.922 120.209 240.112 120.493 240.302 120.683L251.215 129.886C251.595 130.076 251.785 130.076 251.69 129.791Z" fill="white"/>
</mask>
<g mask="url(#mask1_193_612)">
<path d="M237.739 117.268L237.834 117.552L251.121 125.142L251.026 124.858L237.739 117.268Z" fill="url(#paint1_linear_193_612)"/>
</g>
<path d="M253.588 134.156C251.405 132.827 245.237 128.748 244.952 128.463C244.288 127.894 242.01 123.814 241.915 122.106C241.915 121.822 241.915 121.537 242.2 121.442C242.389 121.347 242.674 121.537 242.769 121.727C243.433 122.486 245.426 125.522 245.521 125.522C247.23 125.617 248.938 123.055 254.347 125.996" fill="#76473F"/>
<path d="M319.451 127.514L324.671 122.296" stroke="#76473F" stroke-width="0.75" stroke-miterlimit="10"/>
<path d="M296.39 62.2391C294.302 68.1214 293.353 84.63 297.623 87.1917C301.894 89.7533 308.158 85.9583 310.151 84.0607C312.998 81.4042 319.261 69.3548 315.465 64.8008C311.669 60.2467 299.332 53.9848 296.39 62.2391Z" fill="#76473F"/>
<path d="M304.172 84.1556L306.07 96.5844C306.07 96.5844 302.179 101.898 304.741 103.51C308.537 105.977 318.977 96.2049 318.977 96.2049L313.472 77.9886" fill="#76473F"/>
<path d="M318.597 65.9393C317.933 60.0569 311.195 55.5977 304.931 55.7875C300.565 54.5541 289.557 57.8748 292.688 68.8805C292.688 68.8805 303.602 70.2087 307.209 65.6546C307.304 76.0911 316.035 78.3681 316.035 78.3681C316.035 78.3681 319.356 73.055 318.597 65.9393Z" fill="black"/>
<path d="M303.412 55.8824C306.449 52.6566 311.289 52.9412 315.086 54.5541C319.166 56.2619 319.166 59.1082 321.729 62.7135C323.912 65.6547 329.321 69.5446 332.453 71.537C333.877 72.3909 335.395 73.1499 336.724 74.0987C339.855 76.4706 341.848 80.2657 341.943 84.2505C341.943 86.148 341.564 88.2353 342.133 90.038C343.082 93.1689 346.404 94.8767 348.492 97.3435C350.39 99.5256 351.339 102.562 350.864 105.503C350.295 108.918 348.017 111.765 345.36 113.947C340.804 117.647 335.015 119.924 329.131 119.639C323.247 119.355 317.553 116.414 314.326 111.48C312.998 109.488 312.144 106.926 312.998 104.744C313.472 103.51 314.516 102.372 314.801 101.044C315.275 98.3871 312.618 96.3947 311.384 94.1176C310.246 91.9355 310.246 89.2789 311.005 87.0019C311.669 84.8197 313.757 82.5427 313.852 80.2657C313.947 78.2732 312.523 75.8065 311.195 74.3833" fill="black"/>
<path d="M310.72 76.186C310.72 75.9962 311.005 75.8065 311.194 75.7116C312.144 75.2372 313.282 74.7628 314.231 75.2372C314.706 75.5218 314.991 75.9962 315.18 76.5655C315.655 78.3681 315.18 80.6452 313.757 81.8786C312.428 83.0171 309.296 83.4915 309.012 81.1196" fill="#76473F"/>
<path d="M299.521 73.055C299.521 73.055 295.915 77.8937 296.769 78.9374C297.623 79.981 299.521 79.6015 299.521 79.6015" stroke="#76473F" stroke-width="0.9173" stroke-miterlimit="10"/>
<path d="M303.223 73.2448C303.128 73.6243 303.223 74.0987 303.223 74.3833C303.223 74.9526 303.887 75.1423 304.267 74.8577C305.121 74.3833 304.646 72.296 303.602 72.5807C303.317 72.8653 303.223 73.055 303.223 73.2448Z" fill="black"/>
<path d="M295.535 72.3909C295.441 72.7704 295.535 73.2448 295.535 73.5294C295.535 74.0987 296.2 74.2884 296.579 74.0038C297.434 73.5294 296.959 71.4421 295.915 71.7268C295.725 71.9165 295.535 72.1063 295.535 72.3909Z" fill="black"/>
<path d="M301.419 70.9677C301.419 70.9677 303.507 68.8805 306.449 71.537" stroke="black" stroke-width="0.9173" stroke-miterlimit="10" stroke-linecap="round"/>
<path d="M295.441 70.3985C296.2 69.8292 297.434 69.3548 298.572 70.5882" stroke="black" stroke-width="0.9173" stroke-miterlimit="10" stroke-linecap="round"/>
<path d="M297.718 81.9734L303.697 81.3093C303.697 81.3093 302.274 84.63 299.427 84.3454C297.908 84.1556 297.718 81.9734 297.718 81.9734Z" fill="white"/>
<path d="M304.741 87.7609C304.741 87.7609 308.727 87.0019 310.72 83.871" stroke="#76473F" stroke-width="0.9173" stroke-miterlimit="10"/>
<path d="M161.911 295.636L22.4977 327.799C17.5627 328.937 12.6277 325.901 11.4889 320.873L-49.5342 56.6414C-50.673 51.7078 -47.6361 46.7742 -42.6062 45.6357L96.8073 13.4725C101.742 12.334 106.677 15.4649 107.816 20.3985L168.839 284.63C169.978 289.564 166.846 294.497 161.911 295.636Z" fill="#191919" stroke="white" stroke-width="1.5" stroke-miterlimit="10" stroke-linejoin="round"/>
<path d="M12.0582 296.774C11.7735 296.774 11.3939 296.585 11.3939 296.205L-41.0878 69.3548C-41.1827 68.9753 -40.898 68.5958 -40.5184 68.5009L104.874 34.9146C104.969 34.9146 104.969 34.9146 105.064 34.9146C105.348 34.9146 105.728 35.1044 105.728 35.4839L158.115 262.334C158.115 262.524 158.115 262.714 158.02 262.903C157.925 263.093 157.735 263.188 157.545 263.188L12.1531 296.774H12.0582Z" fill="#E2E2E2"/>
<path d="M105.064 35.6736L157.451 262.524L12.0583 296.11L-40.3285 69.26L105.064 35.6736ZM105.064 34.2505C104.969 34.2505 104.874 34.2505 104.779 34.2505L-40.7081 67.8368C-41.0878 67.9317 -41.3725 68.1214 -41.5623 68.5009C-41.7521 68.8805 -41.847 69.1651 -41.7521 69.5446L10.6347 296.395C10.7296 296.774 10.9194 297.059 11.2991 297.249C11.4889 297.438 11.7736 297.438 12.0583 297.438C12.1532 297.438 12.2481 297.438 12.343 297.438L157.735 263.852C158.495 263.662 158.969 262.903 158.779 262.144L106.487 35.2941C106.298 34.7249 105.728 34.2505 105.064 34.2505Z" fill="white"/>
<path d="M93.5805 292.505C94.2448 295.541 92.3467 298.577 89.3098 299.241C86.2729 299.905 83.236 298.008 82.5717 294.972C81.9073 291.935 83.8054 288.899 86.8423 288.235C89.8792 287.571 92.9162 289.469 93.5805 292.505Z" stroke="white" stroke-miterlimit="10" stroke-linecap="round" stroke-linejoin="round"/>
<path d="M16.7086 45.0664L43.1867 38.9943" stroke="white" stroke-width="3" stroke-miterlimit="10" stroke-linecap="round" stroke-linejoin="round"/>
<path d="M6.93347 47.3434L11.8685 46.2049" stroke="white" stroke-width="3" stroke-miterlimit="10" stroke-linecap="round" stroke-linejoin="round"/>
<path opacity="0.45" d="M79.345 101.044L-19.5446 123.814L-12.8064 114.706L-16.128 100.664C-18.8802 88.8994 -11.4778 77.2296 0.195395 74.4782L69.475 58.5389C81.2431 55.7875 92.9162 63.1879 95.6684 74.8577C98.4207 86.6224 91.1131 98.2922 79.345 101.044Z" fill="#8C8C8C"/>
<path d="M-0.563843 85.7685L77.4469 67.7419" stroke="#8C8C8C" stroke-width="1.5" stroke-miterlimit="10" stroke-linecap="round" stroke-linejoin="round"/>
<path d="M65.9636 77.8937L79.1552 74.8577" stroke="#8C8C8C" stroke-width="1.5" stroke-miterlimit="10" stroke-linecap="round" stroke-linejoin="round"/>
<path d="M1.04956 92.8843L55.3344 80.3605" stroke="#8C8C8C" stroke-width="1.5" stroke-miterlimit="10" stroke-linecap="round" stroke-linejoin="round"/>
<path d="M2.75781 100.095L80.7686 82.0683" stroke="#8C8C8C" stroke-width="1.5" stroke-miterlimit="10" stroke-linecap="round" stroke-linejoin="round"/>
<path d="M4.37109 107.306L42.2376 98.5769" stroke="#8C8C8C" stroke-width="1.5" stroke-miterlimit="10" stroke-linecap="round" stroke-linejoin="round"/>
<path opacity="0.45" d="M117.686 253.321L18.7965 276.091L25.5347 266.983L22.3079 252.846C19.5557 241.082 26.9582 229.412 38.6314 226.66L107.911 210.721C119.679 207.97 131.352 215.37 134.104 227.04C136.762 238.899 129.454 250.569 117.686 253.321Z" fill="#8C8C8C"/>
<path d="M37.7772 238.046L115.788 220.019" stroke="#8C8C8C" stroke-width="1.5" stroke-miterlimit="10" stroke-linecap="round" stroke-linejoin="round"/>
<path d="M104.305 230.171L117.496 227.135" stroke="#8C8C8C" stroke-width="1.5" stroke-miterlimit="10" stroke-linecap="round" stroke-linejoin="round"/>
<path d="M39.3906 245.161L93.6755 232.638" stroke="#8C8C8C" stroke-width="1.5" stroke-miterlimit="10" stroke-linecap="round" stroke-linejoin="round"/>
<path d="M41.0989 252.372L119.11 234.345" stroke="#8C8C8C" stroke-width="1.5" stroke-miterlimit="10" stroke-linecap="round" stroke-linejoin="round"/>
<path d="M42.7122 259.583L80.6736 250.854" stroke="#8C8C8C" stroke-width="1.5" stroke-miterlimit="10" stroke-linecap="round" stroke-linejoin="round"/>
<path opacity="0.45" d="M29.9001 200.095L128.79 177.23L118.825 172.011L115.598 157.875C112.846 146.11 101.173 138.805 89.4047 141.556L20.125 157.495C8.35699 160.247 1.04942 171.917 3.80162 183.681C6.45892 195.446 18.227 202.846 29.9001 200.095Z" fill="#8C8C8C"/>
<path d="M95.099 151.328L16.9933 169.355" stroke="#8C8C8C" stroke-width="1.5" stroke-miterlimit="10" stroke-linecap="round" stroke-linejoin="round"/>
<path d="M31.7983 173.529L18.6067 176.565" stroke="#8C8C8C" stroke-width="1.5" stroke-miterlimit="10" stroke-linecap="round" stroke-linejoin="round"/>
<path d="M96.7124 158.539L42.4275 171.063" stroke="#8C8C8C" stroke-width="1.5" stroke-miterlimit="10" stroke-linecap="round" stroke-linejoin="round"/>
<path d="M98.4206 165.655L20.3149 183.681" stroke="#8C8C8C" stroke-width="1.5" stroke-miterlimit="10" stroke-linecap="round" stroke-linejoin="round"/>
<path d="M100.034 172.865L62.1674 181.594" stroke="#8C8C8C" stroke-width="1.5" stroke-miterlimit="10" stroke-linecap="round" stroke-linejoin="round"/>
<path d="M84.4697 166.319C82.0022 198.102 70.8036 240.228 61.3132 252.277C53.0566 262.713 9.40091 284.725 9.40091 284.725L2.18823 253.7L29.9001 234.25L37.9669 189.374C37.9669 189.374 33.2217 171.632 38.4414 159.393" fill="black"/>
<path d="M3.99146 261.195L38.3466 237.666L47.0777 177.894" stroke="black" stroke-width="0.75" stroke-miterlimit="10"/>
<path d="M114.839 348.482V346.3H143.784C145.208 346.3 146.442 345.541 147.201 344.402H147.486V348.008C147.486 348.102 147.391 348.292 147.391 348.387L147.296 348.482C146.726 349.146 145.872 349.431 145.018 349.431H115.693C115.218 349.241 114.839 348.956 114.839 348.482Z" fill="white"/>
<path d="M104.02 307.875L116.073 335.769L116.927 345.541H144.733C145.682 345.541 146.442 344.782 146.442 343.833C146.442 343.169 146.062 342.505 145.398 342.315L129.359 335.863L121.862 304.934" fill="#F7A89A"/>
<path d="M117.117 339.848C117.401 339.564 115.978 335.769 115.978 335.769L113.225 329.317L127.081 325.996L129.454 335.294L117.117 339.848Z" fill="white"/>
<path d="M129.169 334.156L146.347 342.22C147.106 342.505 147.486 343.264 147.486 344.213C147.486 345.351 146.252 346.3 145.303 346.3H114.934L115.788 335.484C115.788 335.484 121.387 338.52 129.169 334.156Z" fill="#F44B74"/>
<path d="M132.681 335.389C131.732 336.622 130.877 338.046 130.213 339.469" stroke="white" stroke-miterlimit="10" stroke-linecap="round"/>
<path d="M134.863 336.717C133.82 338.14 133.44 338.899 132.87 340.228" stroke="white" stroke-miterlimit="10" stroke-linecap="round"/>
<path d="M136.667 337.666C136.002 338.615 135.338 339.848 134.863 340.892" stroke="white" stroke-miterlimit="10" stroke-linecap="round"/>
<path d="M73.1761 179.981C73.1761 179.981 103.166 229.981 107.436 241.841C111.707 253.7 126.797 314.421 126.797 314.421L92.8211 319.165C92.8211 319.165 77.162 256.167 74.3149 251.898C69.3799 244.592 45.0846 215.75 45.0846 215.75C45.0846 215.75 23.1619 199.051 24.9651 171.632" fill="#0F0F0F"/>
<path d="M100.129 317.552L83.141 251.044L49.735 210.247C49.735 210.247 34.6453 198.956 31.0389 182.068" stroke="black" stroke-width="0.75" stroke-miterlimit="10"/>
<path d="M33.4115 189.469H41.763C44.9897 189.469 47.9318 187.571 49.1655 184.63L52.0126 178.273" stroke="black" stroke-width="0.75" stroke-miterlimit="10"/>
<path d="M132.871 130.55L129.834 120.873C129.834 120.873 143.31 109.108 143.974 109.583C145.208 110.531 139.514 115.655 139.514 115.655C139.514 115.655 146.442 110.721 146.726 111.385C147.201 112.619 141.127 118.216 141.127 118.216C141.127 118.216 147.581 113.093 147.77 114.137C147.96 115.18 139.893 124.099 139.893 124.099L132.871 130.55Z" fill="#F7A89A"/>
<path d="M128.315 120.968L130.688 119.26C130.688 119.26 133.06 115.56 135.528 113.188C137.995 110.816 138.849 110.152 139.419 110.436C139.988 110.721 137.711 114.516 137.711 114.516C137.711 114.516 136.667 118.786 134.104 120.588" fill="#F7A89A"/>
<path d="M135.907 124.668L133.155 119.165C133.06 118.975 133.06 118.596 133.345 118.406L145.588 105.598C145.588 105.598 145.777 105.693 145.967 105.787C146.062 105.787 146.157 105.882 146.252 105.977L149.479 111.67C149.574 111.86 149.574 112.239 149.289 112.429L137.236 124.763C137.046 124.953 136.857 125.047 136.667 124.953L135.907 124.668Z" fill="#0A172B"/>
<path d="M135.813 124.573L132.681 118.975C132.586 118.786 132.586 118.406 132.871 118.216L144.923 105.787C145.208 105.503 145.588 105.503 145.777 105.787L149.004 111.48C149.099 111.67 149.099 112.049 148.814 112.239L136.762 124.573C136.382 124.858 135.908 124.858 135.813 124.573Z" fill="#00276F"/>
<path d="M133.63 117.268L137.331 123.814L147.865 113.093L144.164 106.452L133.63 117.268Z" fill="#8DADE0"/>
<path d="M134.864 121.063C134.769 121.252 134.484 121.252 134.389 121.157C134.294 121.063 134.294 120.778 134.484 120.683C134.579 120.493 134.864 120.493 134.958 120.588C135.053 120.683 135.053 120.873 134.864 121.063Z" fill="#8DADE0"/>
<path d="M146.347 108.444L146.916 109.583" stroke="#8DADE0" stroke-width="0.25" stroke-miterlimit="10" stroke-linecap="round"/>
<path opacity="0.55" d="M141.981 110.057C141.886 110.247 141.697 110.247 141.602 110.152C141.507 110.057 141.507 109.867 141.697 109.677C141.792 109.488 141.981 109.488 142.076 109.583C142.171 109.677 142.171 109.867 141.981 110.057Z" fill="#8DADE0"/>
<path opacity="0.51" d="M146.062 113.093L144.069 109.677C143.879 109.298 143.31 109.298 142.93 109.677L142.076 110.626H141.697L144.069 114.801C144.259 115.18 144.828 115.18 145.208 114.801L145.778 114.232C146.157 113.852 146.252 113.472 146.062 113.093Z" fill="white"/>
<path d="M143.405 110.247L145.398 113.662" stroke="#8DADE0" stroke-width="0.25" stroke-miterlimit="10" stroke-linecap="round"/>
<path d="M142.741 110.911L143.879 112.903" stroke="#8DADE0" stroke-width="0.25" stroke-miterlimit="10" stroke-linecap="round"/>
<path opacity="0.55" d="M135.338 116.603C135.243 116.793 135.053 116.793 134.958 116.698C134.864 116.603 134.864 116.414 135.053 116.224C135.148 116.034 135.338 116.034 135.433 116.129C135.528 116.224 135.528 116.414 135.338 116.603Z" fill="#8DADE0"/>
<path opacity="0.51" d="M139.419 119.734L137.426 116.319C137.236 115.939 136.667 115.939 136.287 116.319L135.433 117.268H135.053L137.426 121.442C137.616 121.822 138.185 121.822 138.565 121.442L139.134 120.873C139.514 120.493 139.609 120.019 139.419 119.734Z" fill="white"/>
<path d="M136.762 116.793L138.755 120.304" stroke="#8DADE0" stroke-width="0.25" stroke-miterlimit="10" stroke-linecap="round"/>
<path d="M136.097 117.457L137.236 119.45" stroke="#8DADE0" stroke-width="0.25" stroke-miterlimit="10" stroke-linecap="round"/>
<path opacity="0.55" d="M142.076 118.596C141.981 118.786 141.792 118.786 141.697 118.691C141.602 118.596 141.602 118.406 141.792 118.216C141.886 118.027 142.076 118.027 142.171 118.121C142.171 118.216 142.171 118.501 142.076 118.596Z" fill="#8DADE0"/>
<path opacity="0.51" d="M142.646 116.034L140.558 112.334C140.368 112.049 139.893 112.049 139.609 112.334L138.755 113.188C138.565 113.378 138.47 113.757 138.565 113.947L141.222 118.501L141.317 117.932L142.456 116.698C142.646 116.509 142.741 116.224 142.646 116.034Z" fill="white"/>
<path d="M139.893 112.903L141.792 116.414" stroke="#8DADE0" stroke-width="0.25" stroke-miterlimit="10" stroke-linecap="round"/>
<path d="M139.229 113.662L140.368 115.655" stroke="#8DADE0" stroke-width="0.25" stroke-miterlimit="10" stroke-linecap="round"/>
<path d="M140.463 115.939L140.937 116.698" stroke="#8DADE0" stroke-width="0.25" stroke-miterlimit="10" stroke-linecap="round"/>
<mask id="mask2_193_612" style="mask-type:luminance" maskUnits="userSpaceOnUse" x="132" y="105" width="18" height="20">
<path d="M135.813 124.573L132.681 118.975C132.586 118.786 132.586 118.406 132.871 118.216L144.923 105.787C145.208 105.503 145.588 105.503 145.777 105.787L149.004 111.48C149.099 111.67 149.099 112.049 148.814 112.239L136.762 124.573C136.382 124.858 135.908 124.858 135.813 124.573Z" fill="white"/>
</mask>
<g mask="url(#mask2_193_612)">
<path d="M149.763 109.393L150.428 110.816L131.352 122.201L130.688 120.778L149.763 109.393Z" fill="url(#paint2_linear_193_612)"/>
</g>
<mask id="mask3_193_612" style="mask-type:luminance" maskUnits="userSpaceOnUse" x="132" y="105" width="18" height="20">
<path d="M135.813 124.573L132.681 118.975C132.586 118.786 132.586 118.406 132.871 118.216L144.923 105.787C145.208 105.503 145.588 105.503 145.777 105.787L149.004 111.48C149.099 111.67 149.099 112.049 148.814 112.239L136.762 124.573C136.382 124.858 135.908 124.858 135.813 124.573Z" fill="white"/>
</mask>
<g mask="url(#mask3_193_612)">
<path d="M150.333 108.065L150.428 108.444L131.352 119.829L131.162 119.45L150.333 108.065Z" fill="url(#paint3_linear_193_612)"/>
</g>
<path d="M101.173 120.588L106.392 133.397L130.593 119.26C130.593 119.26 137.046 125.617 136.192 129.222C123.95 139.943 107.436 159.013 96.6174 154.175C87.4117 150 77.9214 121.157 77.9214 121.157" fill="#F7A89A"/>
<path d="M106.393 133.397C106.393 133.397 101.647 135.863 96.6174 140.512" stroke="#B74539" stroke-width="0.75" stroke-miterlimit="10"/>
<path d="M133.725 131.404C133.725 131.404 142.456 124.004 143.785 122.391C145.208 120.873 148.909 116.509 148.15 116.129C147.391 115.75 143.025 119.545 142.456 120.209C140.463 120.209 136.192 121.822 134.769 124.573" fill="#F7A89A"/>
<path d="M82.8564 86.7173C82.8564 86.7173 96.9021 91.4611 105.254 127.324C101.078 131.12 82.6665 136.907 78.2061 135.674C75.0743 127.419 74.7896 108.254 74.7896 108.254" fill="#F44B74"/>
<path d="M87.4117 98.1025C87.4117 98.1025 93.4855 108.349 89.9741 136.433C86.4627 164.516 83.5207 179.412 83.5207 179.412C83.5207 179.412 56.9477 192.505 22.7823 179.412C23.4467 160.721 27.9071 119.45 41.7631 101.898C56.8527 82.8273 69.0953 83.5863 69.0953 83.5863L83.5207 87.7609L87.4117 98.1025Z" fill="#F44B74"/>
<path d="M90.3537 133.397C90.3537 133.397 93.5804 115.844 89.5945 104.459" stroke="black" stroke-width="0.75" stroke-miterlimit="10"/>
<path d="M29.9001 98.5768C29.9001 98.5768 12.8174 126.471 7.97733 138.046C1.71369 152.846 2.75763 194.307 2.75763 194.307L10.255 195.825L24.9651 144.782L46.9827 115.75" fill="#F7A89A"/>
<path d="M69.1902 83.5863C69.1902 83.5863 45.1796 80.8349 33.4116 92.5996C21.8333 104.175 14.5258 120.493 14.5258 120.493C14.5258 120.493 29.8052 138.425 48.6911 136.243L62.1674 102.467" fill="#F44B74"/>
<path d="M14.5258 120.493C14.5258 120.493 29.8052 138.425 48.6911 136.243L62.1674 102.467" stroke="black" stroke-width="0.75" stroke-miterlimit="10"/>
<path d="M12.0582 188.71C11.8684 191.461 12.3429 197.154 12.1531 199.905C12.0582 201.518 11.6786 204.364 11.0143 204.459C9.49583 204.649 10.7296 200.095 9.97035 200.19C9.49583 200.285 9.30602 203.795 9.21112 205.598C9.11622 207.211 8.83151 209.393 7.97738 209.583C6.93344 209.772 7.50286 200.664 7.50286 200.664C7.50286 200.664 6.55382 210.152 5.60479 210.342C4.27614 210.531 5.22517 200.949 5.22517 200.949C5.22517 200.949 4.27614 209.013 3.3271 209.203C2.37806 209.298 3.1373 203.416 3.1373 200.949C2.75768 202.657 2.28316 207.4 1.61883 207.4C0.954506 207.4 0.859605 203.985 0.954509 203.131C1.42903 197.913 3.1373 187.761 3.1373 187.761" fill="#F7A89A"/>
<path d="M85.7034 76.2808L75.6436 58.7286L67.7666 72.6755L68.336 75.9013L65.2042 86.3377C68.336 95.6357 81.2429 96.6793 83.9002 91.7457L85.7034 76.2808Z" fill="#F7A89A"/>
<path d="M94.5295 52.7514C96.1428 59.0133 96.6174 80.1708 91.5875 82.3529C86.5576 84.5351 76.4978 82.4478 73.5558 78.6528C70.9934 75.3321 68.6208 57.7799 73.1762 53.5104C77.8264 49.241 92.2518 44.0228 94.5295 52.7514Z" fill="#F7A89A"/>
<path d="M80.5786 57.5901C81.3378 56.167 82.0971 54.8387 82.7614 53.4156C87.8862 54.8387 93.011 56.2619 98.1358 57.685C98.3256 57.7799 98.6103 57.7799 98.8001 57.685C98.9899 57.5901 99.0848 57.4004 99.0848 57.3055C99.9389 55.5028 99.7491 53.4156 99.3695 51.518C98.8001 48.8615 97.6613 46.2998 95.8581 44.3074C93.3906 41.6508 89.6894 40.3226 86.083 40.5123C82.4767 40.6072 78.9653 42.1252 76.1181 44.4023C75.8334 44.592 75.6436 44.7818 75.3589 44.8767C75.0742 44.9715 74.7895 44.9715 74.5048 44.8767C69.9494 44.6869 65.0144 48.6717 63.6858 52.9412C62.9266 55.3131 62.0724 59.3928 64.0654 62.334C65.0144 63.7571 67.7666 73.6243 67.7666 73.6243C67.7666 73.6243 70.8985 71.3472 71.2781 71.0626C72.4169 70.1138 73.3659 68.5958 74.2201 67.3624C75.0742 65.9393 75.9283 64.7059 76.9723 63.2827C78.206 61.3852 79.4398 59.4877 80.5786 57.5901Z" fill="black"/>
<path d="M76.2131 65.9393C75.6437 64.8008 74.7896 63.5674 73.6507 63.4725C73.0813 63.3776 72.5119 63.6622 72.0373 64.1366C69.7597 66.2239 69.6648 70.3985 71.9424 72.4858C72.8915 73.3397 74.315 73.814 75.1692 72.5806L76.308 66.6983C76.4978 66.5085 76.308 66.2239 76.2131 65.9393Z" fill="#F7A89A"/>
<path d="M84.7543 83.5863C84.7543 83.5863 76.6875 83.3017 73.271 78.2732" stroke="#B74539" stroke-width="0.9719" stroke-miterlimit="10"/>
<path d="M90.7333 63.4725C90.7333 63.4725 93.4855 69.3548 92.3466 70.778C91.2078 72.2011 88.6454 71.0626 88.6454 71.0626" stroke="#B74539" stroke-width="0.9719" stroke-miterlimit="10"/>
<path d="M86.3678 62.7135C86.4627 63.093 86.4627 63.6622 86.4627 63.9469C86.4627 64.5161 85.8933 64.8008 85.3238 64.7059C84.3748 64.4213 84.5646 62.1442 85.7035 62.2391C86.178 62.2391 86.2729 62.5237 86.3678 62.7135Z" fill="#3F111D"/>
<path d="M94.4345 62.7135C94.5295 63.093 94.5295 63.6622 94.5295 63.9469C94.5295 64.5161 93.96 64.8008 93.3906 64.7059C92.4416 64.4213 92.6314 62.1442 93.7702 62.2391C94.2447 62.2391 94.3396 62.5237 94.4345 62.7135Z" fill="#3F111D"/>
<path d="M91.9671 74.9525L83.6156 72.5806C83.6156 72.5806 83.3309 78.9374 88.2659 79.8861C91.3977 80.4554 91.9671 74.9525 91.9671 74.9525Z" fill="white"/>
<path d="M87.0321 59.6774C85.4188 59.6774 83.7105 60.0569 82.2869 60.6262C82.0971 60.5313 81.7175 59.7723 81.9073 59.2979C82.0971 58.9184 84.5646 58.0645 86.8423 58.1594C86.9372 58.2543 87.3168 59.4877 87.0321 59.6774Z" fill="#3F111D"/>
<path d="M91.4925 59.5825C92.6313 59.5825 93.7702 59.962 94.7192 60.5313C94.8141 60.4364 95.0988 59.8672 95.0039 59.3928C94.909 59.0133 93.2957 58.2543 91.6823 58.2543C91.6823 58.2543 91.3027 59.3928 91.4925 59.5825Z" fill="#3F111D"/>
<path d="M70.9934 71.2524C70.9934 71.2524 72.6068 73.7192 74.7896 73.055" stroke="#B74539" stroke-width="0.9719" stroke-miterlimit="10"/>
<path d="M16.2341 265.655C19.1761 261.575 24.4907 259.867 29.2359 261.29C34.5505 262.903 37.6823 267.647 37.6823 272.581C41.4785 269.45 47.1727 268.786 51.823 271.727C55.9987 274.478 58.0866 279.696 56.9478 284.535C55.9038 288.71 52.9618 291.651 49.4504 292.884L24.0162 302.182L14.7157 276.755C13.2921 273.245 13.6717 269.07 16.2341 265.655Z" fill="#F44B74"/>
<path d="M28.0972 293.264C28.0972 293.264 38.8213 275.332 57.0428 284.63" stroke="#191919" stroke-width="0.75" stroke-miterlimit="10"/>
<path d="M33.3168 287.192C32.7474 273.529 19.366 271.252 13.8616 274.288" stroke="#191919" stroke-width="0.75" stroke-miterlimit="10"/>
<path d="M42.8072 282.258C42.997 279.222 37.2079 272.011 29.6156 277.514" stroke="#191919" stroke-width="0.75" stroke-miterlimit="10"/>
<path d="M53.0568 282.922C53.0568 282.922 51.7282 271.727 37.7773 275.996" stroke="#191919" stroke-width="0.75" stroke-miterlimit="10"/>
<path d="M19.8405 273.055C22.4978 262.144 38.6314 262.619 37.3027 275.901" stroke="#191919" stroke-width="0.75" stroke-miterlimit="10"/>
<path d="M21.1691 294.213C21.5488 293.928 21.9284 293.928 22.308 294.023C23.257 294.307 24.1112 295.066 24.4908 296.205C24.4908 295.541 24.5857 294.877 24.9653 294.307C25.6296 293.074 27.1481 292.979 27.7175 293.833C28.3818 294.687 28.3818 296.11 28.5716 297.343C28.5716 297.438 28.5716 297.533 28.6665 297.628C28.7614 297.818 29.0461 297.723 29.236 297.628C30.7544 297.059 32.178 297.818 32.6525 299.431C32.7474 299.621 32.7474 299.905 32.6525 300.19C32.4627 300.759 31.9882 300.949 31.6085 301.139C29.236 301.992 24.0163 304.269 24.0163 304.269C24.0163 304.269 21.6437 299.715 20.7895 297.533C20.5997 297.059 20.4099 296.49 20.4099 295.825C20.4099 295.256 20.6946 294.497 21.1691 294.213Z" fill="black"/>
<path d="M14.9056 349.241C14.9056 349.241 14.6209 322.011 25.9144 299.526" stroke="black" stroke-width="1.5" stroke-miterlimit="10"/>
<path d="M35.5945 308.918C32.8423 308.159 28.192 307.875 26.0092 308.159C22.8774 308.539 20.2201 311.006 21.5488 313.472C24.1112 317.173 31.9882 314.042 35.5945 308.918Z" fill="black"/>
<path d="M11.1094 300.949C11.489 303.795 13.0075 308.159 14.1463 310.057C15.7597 312.808 18.9864 314.326 20.7895 312.049C23.257 308.254 17.2781 302.182 11.1094 300.949Z" fill="black"/>
<path d="M382.088 264.706C379.146 259.962 373.357 257.59 367.947 258.918C361.968 260.342 358.172 265.275 357.697 270.778C353.712 266.983 347.543 265.844 342.133 268.786C337.293 271.442 334.541 277.04 335.49 282.543C336.344 287.192 339.381 290.702 343.177 292.41L370.604 304.649L382.847 277.23C384.65 273.34 384.555 268.691 382.088 264.706Z" fill="#F44B74"/>
<path d="M368.896 299.431C368.896 299.431 359.785 271.727 335.395 282.543" stroke="#191919" stroke-width="0.75" stroke-miterlimit="10"/>
<path d="M361.494 287.287C363.202 272.201 378.197 270.778 383.986 274.478" stroke="#191919" stroke-width="0.75" stroke-miterlimit="10"/>
<path d="M351.339 281.025C351.339 277.704 358.267 270.114 366.334 276.755" stroke="#191919" stroke-width="0.75" stroke-miterlimit="10"/>
<path d="M339.95 281.025C339.95 281.025 342.228 268.691 357.413 274.573" stroke="#191919" stroke-width="0.75" stroke-miterlimit="10"/>
<path d="M377.437 272.581C375.255 260.342 357.508 259.583 357.887 274.383" stroke="#191919" stroke-width="0.75" stroke-miterlimit="10"/>
<path d="M374.78 297.059C374.401 296.774 373.926 296.774 373.546 296.869C372.502 297.154 371.553 298.102 371.174 299.336C371.079 298.672 370.984 297.913 370.699 297.249C369.94 295.825 368.327 295.825 367.567 296.774C366.903 297.723 366.808 299.336 366.713 300.759C366.713 300.854 366.713 300.949 366.618 301.044C366.524 301.233 366.144 301.139 365.954 301.044C364.246 300.474 362.632 301.328 362.158 303.131C362.063 303.416 362.063 303.7 362.158 303.985C362.348 304.554 362.917 304.839 363.392 305.028C366.049 305.977 371.933 308.444 371.933 308.444C371.933 308.444 374.495 303.416 375.35 300.949C375.539 300.38 375.729 299.715 375.729 299.051C375.634 298.292 375.255 297.438 374.78 297.059Z" fill="black"/>
<path d="M383.037 349.241C383.037 349.241 380.664 324.858 369.655 303.131" stroke="black" stroke-width="1.5" stroke-miterlimit="10"/>
<path d="M387.118 300C383.701 301.898 378.861 306.072 376.963 308.444C374.306 311.86 374.021 316.793 377.722 318.027C383.796 319.165 388.541 308.444 387.118 300Z" fill="black"/>
<path d="M355.515 315.56C358.646 318.027 364.341 320.778 367.283 321.632C371.458 322.77 376.109 321.063 375.824 317.173C374.4 311.195 362.727 311.006 355.515 315.56Z" fill="black"/>
<path d="M217.809 157.021H154.414L160.013 152.277V142.884C160.013 135.01 166.372 128.653 174.249 128.653H217.904C225.781 128.653 232.14 135.01 232.14 142.884C231.95 150.664 225.592 157.021 217.809 157.021Z" fill="#F44B74" stroke="white" stroke-width="1.5" stroke-miterlimit="10" stroke-linejoin="round"/>
<path d="M232.14 61.1006H247.894" stroke="white" stroke-width="1.5" stroke-miterlimit="10" stroke-linecap="round" stroke-linejoin="round"/>
<path d="M252.26 61.1006H259.188" stroke="white" stroke-width="1.5" stroke-miterlimit="10" stroke-linecap="round" stroke-linejoin="round"/>
<path d="M248.274 276.66V281.12" stroke="white" stroke-width="1.5" stroke-miterlimit="10" stroke-linecap="round" stroke-linejoin="round"/>
<path d="M250.456 278.842H246.091" stroke="white" stroke-width="1.5" stroke-miterlimit="10" stroke-linecap="round" stroke-linejoin="round"/>
<path d="M362.158 210.152V214.516" stroke="white" stroke-width="1.5" stroke-miterlimit="10" stroke-linecap="round" stroke-linejoin="round"/>
<path d="M364.341 212.334H359.88" stroke="white" stroke-width="1.5" stroke-miterlimit="10" stroke-linecap="round" stroke-linejoin="round"/>
<path d="M244.667 146.015V150.379" stroke="white" stroke-width="1.5" stroke-miterlimit="10" stroke-linecap="round" stroke-linejoin="round"/>
<path d="M246.85 148.197H242.484" stroke="white" stroke-width="1.5" stroke-miterlimit="10" stroke-linecap="round" stroke-linejoin="round"/>
<path d="M220.562 39.8482V44.2125" stroke="white" stroke-width="1.5" stroke-miterlimit="10" stroke-linecap="round" stroke-linejoin="round"/>
<path d="M222.744 42.0304H218.379" stroke="white" stroke-width="1.5" stroke-miterlimit="10" stroke-linecap="round" stroke-linejoin="round"/>
<path d="M326.189 0.75901V5.12334" stroke="white" stroke-width="1.5" stroke-miterlimit="10" stroke-linecap="round" stroke-linejoin="round"/>
<path d="M328.372 2.94118H324.007" stroke="white" stroke-width="1.5" stroke-miterlimit="10" stroke-linecap="round" stroke-linejoin="round"/>
<path d="M164.568 100C165.722 100 166.656 99.0655 166.656 97.9127C166.656 96.7599 165.722 95.8254 164.568 95.8254C163.415 95.8254 162.481 96.7599 162.481 97.9127C162.481 99.0655 163.415 100 164.568 100Z" stroke="white" stroke-width="1.5" stroke-miterlimit="10" stroke-linecap="round" stroke-linejoin="round"/>
<path d="M248.653 26.6603C248.653 27.7989 247.704 28.7476 246.565 28.7476C245.426 28.7476 244.477 27.7989 244.477 26.6603C244.477 25.5218 245.426 24.5731 246.565 24.5731C247.704 24.5731 248.653 25.5218 248.653 26.6603Z" stroke="white" stroke-width="1.5" stroke-miterlimit="10" stroke-linecap="round" stroke-linejoin="round"/>
<path d="M53.2466 2.94118C53.2466 4.0797 52.2975 5.02846 51.1587 5.02846C50.0198 5.02846 49.0708 4.0797 49.0708 2.94118C49.0708 1.80266 50.0198 0.853889 51.1587 0.853889C52.3924 0.853889 53.2466 1.70778 53.2466 2.94118Z" stroke="white" stroke-width="1.5" stroke-miterlimit="10" stroke-linecap="round" stroke-linejoin="round"/>
<path d="M138.565 250.38C139.718 250.38 140.653 249.445 140.653 248.292C140.653 247.139 139.718 246.205 138.565 246.205C137.412 246.205 136.477 247.139 136.477 248.292C136.477 249.445 137.412 250.38 138.565 250.38Z" stroke="white" stroke-width="1.5" stroke-miterlimit="10" stroke-linecap="round" stroke-linejoin="round"/>
<path d="M169.598 144.877H203.764" stroke="white" stroke-width="1.5" stroke-miterlimit="10" stroke-linecap="round" stroke-linejoin="round"/>
<path d="M371.838 105.313H368.232" stroke="white" stroke-width="1.5" stroke-miterlimit="10" stroke-linecap="round" stroke-linejoin="round"/>
<path d="M374.4 90.4174L376.963 92.8842" stroke="white" stroke-width="1.5" stroke-miterlimit="10" stroke-linecap="round" stroke-linejoin="round"/>
<path d="M376.963 117.647L374.4 120.209" stroke="white" stroke-width="1.5" stroke-miterlimit="10" stroke-linecap="round" stroke-linejoin="round"/>
<path d="M373.167 111.954L369.845 113.378" stroke="white" stroke-width="1.5" stroke-miterlimit="10" stroke-linecap="round" stroke-linejoin="round"/>
<path d="M369.845 97.2486L373.167 98.5768" stroke="white" stroke-width="1.5" stroke-miterlimit="10" stroke-linecap="round" stroke-linejoin="round"/>
<path d="M207.939 144.877H219.233" stroke="white" stroke-width="1.5" stroke-miterlimit="10" stroke-linecap="round" stroke-linejoin="round"/>
<path d="M220.087 193.169H283.483L277.883 188.425V179.032C277.883 171.157 271.525 164.801 263.648 164.801H219.992C212.115 164.801 205.757 171.157 205.757 179.032C205.851 186.812 212.21 193.169 220.087 193.169Z" fill="#F44B74" stroke="white" stroke-width="1.5" stroke-miterlimit="10" stroke-linejoin="round"/>
<path d="M217.43 182.163H261.18" stroke="white" stroke-width="1.5" stroke-miterlimit="10" stroke-linecap="round" stroke-linejoin="round"/>
<path d="M222.937 45.4391C222.041 39.1696 216.891 34.0196 210.622 32.9C203.457 31.7804 197.187 35.587 194.276 41.4087C191.589 35.587 185.096 31.7804 177.93 32.9C171.661 34.0196 166.511 39.1696 165.615 45.4391C164.72 50.5891 166.511 55.2913 169.87 58.65L191.365 80.1457C192.933 81.7131 195.396 81.7131 196.963 80.1457L218.459 58.65C222.041 55.2913 223.833 50.3652 222.937 45.4391Z" fill="#F44B74"/>
<path d="M194.5 3.79131V12.0761" stroke="black" stroke-width="1.5" stroke-miterlimit="10" stroke-linecap="round" stroke-linejoin="round"/>
<path d="M194.5 94.7V103.209" stroke="black" stroke-width="1.5" stroke-miterlimit="10" stroke-linecap="round" stroke-linejoin="round"/>
<path d="M244.209 53.5H235.7" stroke="black" stroke-width="1.5" stroke-miterlimit="10" stroke-linecap="round" stroke-linejoin="round"/>
<path d="M153.076 53.5H144.791" stroke="black" stroke-width="1.5" stroke-miterlimit="10" stroke-linecap="round" stroke-linejoin="round"/>
<path d="M159.346 18.3457L165.167 24.1674" stroke="black" stroke-width="1.5" stroke-miterlimit="10" stroke-linecap="round" stroke-linejoin="round"/>
<path d="M223.609 82.6087L229.654 88.6544" stroke="black" stroke-width="1.5" stroke-miterlimit="10" stroke-linecap="round" stroke-linejoin="round"/>
<path d="M229.654 18.3457L223.609 24.1674" stroke="black" stroke-width="1.5" stroke-miterlimit="10" stroke-linecap="round" stroke-linejoin="round"/>
<path d="M165.167 82.6087L159.346 88.6544" stroke="black" stroke-width="1.5" stroke-miterlimit="10" stroke-linecap="round" stroke-linejoin="round"/>
<path d="M175.468 7.37392L178.602 15.2109" stroke="black" stroke-width="1.5" stroke-miterlimit="10" stroke-linecap="round" stroke-linejoin="round"/>
<path d="M210.174 91.5652L213.533 99.4022" stroke="black" stroke-width="1.5" stroke-miterlimit="10" stroke-linecap="round" stroke-linejoin="round"/>
<path d="M240.402 34.4674L232.565 37.6022" stroke="black" stroke-width="1.5" stroke-miterlimit="10" stroke-linecap="round" stroke-linejoin="round"/>
<path d="M156.211 69.1739L148.374 72.5326" stroke="black" stroke-width="1.5" stroke-miterlimit="10" stroke-linecap="round" stroke-linejoin="round"/>
<path d="M148.374 34.4674L156.211 37.6022" stroke="black" stroke-width="1.5" stroke-miterlimit="10" stroke-linecap="round" stroke-linejoin="round"/>
<path d="M232.565 69.1739L240.402 72.5326" stroke="black" stroke-width="1.5" stroke-miterlimit="10" stroke-linecap="round" stroke-linejoin="round"/>
<path d="M213.533 7.37392L210.174 15.2109" stroke="black" stroke-width="1.5" stroke-miterlimit="10" stroke-linecap="round" stroke-linejoin="round"/>
<path d="M178.602 91.5652L175.468 99.4022" stroke="black" stroke-width="1.5" stroke-miterlimit="10" stroke-linecap="round" stroke-linejoin="round"/>
<defs>
<linearGradient id="paint0_linear_193_612" x1="238.598" y1="122.337" x2="252.328" y2="122.301" gradientUnits="userSpaceOnUse">
<stop stop-color="white" stop-opacity="0.6"/>
<stop offset="0.8878" stop-color="white" stop-opacity="0.1"/>
</linearGradient>
<linearGradient id="paint1_linear_193_612" x1="237.729" y1="120.765" x2="251.132" y2="120.731" gradientUnits="userSpaceOnUse">
<stop stop-color="white" stop-opacity="0.6"/>
<stop offset="0.8878" stop-color="white" stop-opacity="0.1"/>
</linearGradient>
<linearGradient id="paint2_linear_193_612" x1="150.2" y1="110.341" x2="130.21" y2="119.867" gradientUnits="userSpaceOnUse">
<stop stop-color="white" stop-opacity="0.6"/>
<stop offset="0.8878" stop-color="white" stop-opacity="0.1"/>
</linearGradient>
<linearGradient id="paint3_linear_193_612" x1="150.469" y1="108.475" x2="130.492" y2="117.995" gradientUnits="userSpaceOnUse">
<stop stop-color="white" stop-opacity="0.6"/>
<stop offset="0.8878" stop-color="white" stop-opacity="0.1"/>
</linearGradient>
</defs>
</svg>
