<svg width="148" height="45" viewBox="0 0 148 45" fill="none" xmlns="http://www.w3.org/2000/svg">
<path d="M11.7379 15.8163C10.4882 15.9612 8.91242 15.8577 6.88644 15.2781C8.90724 15.8525 10.4856 15.956 11.7379 15.8163Z" fill="#F44B74"/>
<path d="M13.3629 15.4618C13.0582 15.5705 12.746 15.6569 12.4288 15.7205C12.7454 15.6545 13.0574 15.5681 13.3629 15.4618Z" fill="#F44B74"/>
<path d="M14.0847 26.0988L14.0744 26.1143L7.17368 15.7102L14.0847 26.0988Z" fill="#F44B74"/>
<path d="M14.8972 14.7347C14.4096 15.0365 13.8886 15.2805 13.3447 15.4618C13.04 15.5705 12.7278 15.6569 12.4106 15.7205C12.1851 15.7688 11.9571 15.8042 11.7275 15.8266C10.4778 15.9715 8.90204 15.868 6.87606 15.2884H6.86313L6.8269 15.2186L6.3327 14.4604H6.37669C7.73205 13.8947 9.19325 13.627 10.6611 13.6757C12.129 13.7243 13.5693 14.0882 14.8842 14.7425L14.8972 14.7347Z" fill="#FF8AAB"/>
<path d="M22.3232 13.7851L18.0435 20.1968V20.2123L14.0951 26.0936L7.17364 15.7102L6.8942 15.2807C8.92017 15.8603 10.4959 15.9637 11.7457 15.8189C11.9752 15.7965 12.2033 15.761 12.4288 15.7128C12.7459 15.6492 13.0581 15.5627 13.3628 15.454C13.9068 15.2728 14.4278 15.0288 14.9153 14.7269C16.0072 14.0956 16.8947 13.353 18.2402 13.0865C18.4691 13.0416 18.7007 13.0122 18.9336 12.9985C19.8007 12.9572 20.6673 13.09 21.4822 13.3892L21.785 13.5108C21.8885 13.5548 21.9894 13.6014 22.0903 13.6532C22.1912 13.7049 22.2429 13.7411 22.3232 13.7851Z" fill="#F44B74" stroke="black" stroke-width="0.341543" stroke-miterlimit="10"/>
<path d="M21.4719 13.3944C20.657 13.0952 19.7904 12.9624 18.9233 13.0037C18.6904 13.0174 18.4587 13.0468 18.2298 13.0917C16.8844 13.3504 15.9969 14.1008 14.905 14.7321C14.4175 15.0339 13.8965 15.2779 13.3525 15.4592C13.0478 15.5679 12.7356 15.6543 12.4184 15.7179C12.1929 15.7662 11.9649 15.8016 11.7353 15.824C10.4856 15.9689 8.90985 15.8654 6.88388 15.2858C10.4649 16.3208 12.641 15.8499 14.0951 15.1823C14.3698 15.056 14.6368 14.9134 14.8946 14.7554H14.9076C15.9995 14.1008 16.9051 13.3789 18.2324 13.1124C18.4637 13.0654 18.698 13.0351 18.9336 13.0218C19.7962 12.9726 20.6598 13.0994 21.4719 13.3944Z" stroke="black" stroke-width="0.341543" stroke-miterlimit="10"/>
<path d="M14.121 40.9119L14.0847 26.0988" stroke="black" stroke-width="0.341543" stroke-miterlimit="10"/>
<path d="M6.83728 15.2056L1 6.54802H1.07504H21.3529H27.1669L22.3232 13.7851" stroke="black" stroke-width="0.341543" stroke-miterlimit="10"/>
<path d="M6.87351 15.26L6.83729 15.2056L6.33274 14.4475L1.07504 6.54802" stroke="black" stroke-width="0.341543" stroke-miterlimit="10"/>
<path d="M20.2894 42.009C20.2894 42.5498 17.5286 43 14.121 43C10.7133 43 7.94473 42.5705 7.94473 42.009C7.94473 41.4475 10.7107 41.0206 14.121 41.0206C17.5312 41.0206 20.2894 41.4915 20.2894 42.009Z" stroke="black" stroke-width="0.341543" stroke-miterlimit="10"/>
<path d="M6.87441 15.2599H6.86835" stroke="black" stroke-width="0.341543" stroke-miterlimit="10"/>
<path d="M6.37671 14.4242C7.73661 13.8541 9.20366 13.5846 10.6774 13.6341C12.1511 13.6837 13.5968 14.0512 14.9153 14.7114" stroke="black" stroke-width="0.194059" stroke-miterlimit="10"/>
<path d="M15.7097 5.67864L20.0902 10.0514L24.463 5.67864C24.7176 5.42371 24.9195 5.12112 25.0571 4.78815C25.1947 4.45517 25.2654 4.09835 25.2651 3.73805V3.61644C25.2625 3.07579 25.0929 2.54915 24.7793 2.10871C24.4657 1.66827 24.0236 1.33557 23.5136 1.1562C23.0036 0.976838 22.4505 0.959588 21.9303 1.10681C21.4101 1.25404 20.9481 1.55854 20.6077 1.97859L20.0902 2.60216L19.5727 1.97082C19.2323 1.55078 18.7703 1.24628 18.2501 1.09905C17.7299 0.951825 17.1769 0.969076 16.6668 1.14844C16.1568 1.3278 15.7147 1.6605 15.4011 2.10095C15.0876 2.54139 14.9179 3.06803 14.9153 3.60868V3.73029C14.913 4.09135 14.9819 4.44932 15.1182 4.78367C15.2545 5.11801 15.4555 5.42215 15.7097 5.67864Z" fill="#F44B74" stroke="black" stroke-width="0.341543" stroke-miterlimit="10"/>
<path d="M39.7376 34.5858H34.8129L34.7865 31.8733H38.9212C39.6498 31.8733 40.2468 31.7811 40.712 31.5967C41.1773 31.4036 41.524 31.1271 41.7523 30.7672C41.9893 30.3985 42.1078 29.9508 42.1078 29.4241C42.1078 28.8271 41.9937 28.3443 41.7654 27.9756C41.546 27.6069 41.1992 27.3392 40.7252 27.1724C40.2599 27.0056 39.6586 26.9222 38.9212 26.9222H36.1823V43H32.232V23.8278H38.9212C40.0361 23.8278 41.0324 23.9331 41.9103 24.1438C42.7969 24.3545 43.5475 24.6749 44.162 25.1051C44.7765 25.5352 45.2461 26.0795 45.5709 26.7378C45.8957 27.3875 46.0581 28.16 46.0581 29.0554C46.0581 29.8454 45.8782 30.574 45.5183 31.2412C45.1671 31.9084 44.6097 32.4526 43.8459 32.874C43.091 33.2954 42.1034 33.528 40.8832 33.5719L39.7376 34.5858ZM39.5664 43H33.7331L35.2738 39.9188H39.5664C40.2599 39.9188 40.8261 39.809 41.2651 39.5896C41.704 39.3613 42.0288 39.0541 42.2395 38.6678C42.4502 38.2816 42.5555 37.8382 42.5555 37.3379C42.5555 36.7761 42.4589 36.2888 42.2658 35.8763C42.0815 35.4637 41.783 35.1476 41.3704 34.9282C40.9578 34.6999 40.4136 34.5858 39.7376 34.5858H35.9321L35.9585 31.8733H40.6989L41.6074 32.9399C42.775 32.9223 43.7143 33.1286 44.4253 33.5587C45.1452 33.9801 45.6675 34.5288 45.9923 35.2047C46.3259 35.8806 46.4927 36.6049 46.4927 37.3774C46.4927 38.6064 46.2249 39.6422 45.6894 40.485C45.1539 41.3189 44.3683 41.9466 43.3324 42.3679C42.3053 42.7893 41.05 43 39.5664 43ZM56.9083 39.7871V33.4402C56.9083 32.9837 56.8337 32.5931 56.6845 32.2683C56.5353 31.9347 56.3026 31.6757 55.9866 31.4914C55.6794 31.3071 55.2799 31.2149 54.7883 31.2149C54.367 31.2149 54.0027 31.2895 53.6954 31.4387C53.3882 31.5792 53.1511 31.7855 52.9844 32.0576C52.8176 32.321 52.7342 32.6326 52.7342 32.9925H48.9419C48.9419 32.3868 49.0823 31.8118 49.3632 31.2675C49.6441 30.7233 50.0523 30.2449 50.5878 29.8323C51.1233 29.4109 51.7598 29.0817 52.4971 28.8447C53.2433 28.6077 54.0773 28.4892 54.999 28.4892C56.1051 28.4892 57.0883 28.6735 57.9486 29.0422C58.8089 29.4109 59.4848 29.9639 59.9764 30.7013C60.4768 31.4387 60.727 32.3605 60.727 33.4666V39.5632C60.727 40.3445 60.7753 40.9853 60.8718 41.4857C60.9684 41.9773 61.1088 42.4075 61.2932 42.7761V43H57.4614C57.277 42.6137 57.1366 42.1309 57.04 41.5515C56.9522 40.9634 56.9083 40.3752 56.9083 39.7871ZM57.4087 34.3225L57.435 36.4688H55.315C54.8147 36.4688 54.3801 36.5259 54.0114 36.64C53.6427 36.7541 53.3399 36.9165 53.1029 37.1272C52.8658 37.3291 52.6903 37.5661 52.5762 37.8382C52.4708 38.1104 52.4181 38.4089 52.4181 38.7337C52.4181 39.0585 52.4928 39.3525 52.642 39.6159C52.7912 39.8705 53.0063 40.0724 53.2872 40.2216C53.5681 40.3621 53.8973 40.4323 54.2748 40.4323C54.8454 40.4323 55.3414 40.3182 55.7627 40.0899C56.1841 39.8617 56.5089 39.5808 56.7372 39.2472C56.9742 38.9136 57.0971 38.5976 57.1059 38.2991L58.1066 39.9056C57.9661 40.2655 57.773 40.6386 57.5272 41.0248C57.2902 41.4111 56.9873 41.7754 56.6186 42.1178C56.25 42.4513 55.8066 42.7279 55.2887 42.9473C54.7708 43.158 54.1563 43.2634 53.4452 43.2634C52.541 43.2634 51.7203 43.0834 50.9829 42.7235C50.2542 42.3548 49.6749 41.85 49.2447 41.2092C48.8234 40.5596 48.6127 39.8222 48.6127 38.997C48.6127 38.2508 48.7531 37.5881 49.034 37.0087C49.3149 36.4293 49.7275 35.9421 50.2718 35.5471C50.8248 35.1433 51.514 34.8404 52.3391 34.6385C53.1643 34.4278 54.1212 34.3225 55.2097 34.3225H57.4087ZM67.4425 31.8601V43H63.6502V28.7525H67.2187L67.4425 31.8601ZM71.7352 28.6603L71.6694 32.1761C71.485 32.1498 71.2612 32.1278 70.9978 32.1103C70.7432 32.0839 70.5106 32.0708 70.2999 32.0708C69.7644 32.0708 69.2992 32.141 68.9041 32.2815C68.5179 32.4131 68.1931 32.6107 67.9297 32.874C67.6752 33.1374 67.482 33.4578 67.3504 33.8353C67.2275 34.2127 67.1572 34.6429 67.1397 35.1257L66.3759 34.8887C66.3759 33.9669 66.4681 33.1198 66.6525 32.3473C66.8368 31.566 67.1046 30.8857 67.4557 30.3063C67.8156 29.7269 68.2545 29.2792 68.7725 28.9632C69.2904 28.6472 69.8829 28.4892 70.5501 28.4892C70.7608 28.4892 70.9759 28.5067 71.1953 28.5418C71.4148 28.5682 71.5948 28.6077 71.7352 28.6603Z" fill="black"/>
<path d="M84.8766 36.64H88.8138C88.7347 37.9304 88.3792 39.076 87.7472 40.0768C87.1239 41.0775 86.2504 41.8588 85.1268 42.4206C84.0119 42.9824 82.6688 43.2634 81.0975 43.2634C79.8685 43.2634 78.7668 43.0527 77.7924 42.6313C76.818 42.2012 75.984 41.5867 75.2905 40.7878C74.6058 39.989 74.0835 39.0233 73.7235 37.8909C73.3636 36.7585 73.1837 35.49 73.1837 34.0854V32.7555C73.1837 31.3509 73.368 30.0825 73.7367 28.95C74.1142 27.8088 74.6497 26.8388 75.3432 26.04C76.0454 25.2411 76.8838 24.6266 77.8582 24.1965C78.8326 23.7663 79.9211 23.5513 81.1238 23.5513C82.7215 23.5513 84.069 23.8409 85.1663 24.4203C86.2724 24.9997 87.1283 25.7986 87.734 26.8169C88.3485 27.8352 88.7172 28.9939 88.8401 30.2931H84.8898C84.8459 29.5206 84.6923 28.8666 84.4289 28.3311C84.1655 27.7869 83.7661 27.3787 83.2306 27.1065C82.7039 26.8256 82.0016 26.6852 81.1238 26.6852C80.4654 26.6852 79.8904 26.8081 79.3988 27.0539C78.9072 27.2997 78.4946 27.6728 78.1611 28.1731C77.8275 28.6735 77.5773 29.3056 77.4105 30.0693C77.2525 30.8242 77.1735 31.7109 77.1735 32.7292V34.0854C77.1735 35.0774 77.2481 35.9509 77.3973 36.7058C77.5466 37.452 77.7748 38.084 78.0821 38.602C78.3981 39.1111 78.8019 39.4974 79.2935 39.7607C79.7939 40.0153 80.3952 40.1426 81.0975 40.1426C81.9226 40.1426 82.603 40.0109 83.1385 39.7476C83.674 39.4842 84.0822 39.0936 84.3631 38.5756C84.6528 38.0577 84.8239 37.4125 84.8766 36.64ZM94.9631 31.8601V43H91.1708V28.7525H94.7392L94.9631 31.8601ZM99.2558 28.6603L99.1899 32.1761C99.0056 32.1498 98.7817 32.1278 98.5184 32.1103C98.2638 32.0839 98.0312 32.0708 97.8205 32.0708C97.285 32.0708 96.8197 32.141 96.4247 32.2815C96.0385 32.4131 95.7136 32.6107 95.4503 32.874C95.1957 33.1374 95.0026 33.4578 94.8709 33.8353C94.748 34.2127 94.6778 34.6429 94.6602 35.1257L93.8965 34.8887C93.8965 33.9669 93.9887 33.1198 94.173 32.3473C94.3574 31.566 94.6251 30.8857 94.9763 30.3063C95.3362 29.7269 95.7751 29.2792 96.293 28.9632C96.811 28.6472 97.4035 28.4892 98.0707 28.4892C98.2814 28.4892 98.4964 28.5067 98.7159 28.5418C98.9354 28.5682 99.1153 28.6077 99.2558 28.6603ZM109.474 39.5896V28.7525H113.266V43H109.698L109.474 39.5896ZM109.895 36.6663L111.015 36.64C111.015 37.5881 110.905 38.4703 110.685 39.2867C110.466 40.0943 110.137 40.7966 109.698 41.3935C109.259 41.9817 108.706 42.4426 108.039 42.7761C107.371 43.101 106.586 43.2634 105.682 43.2634C104.988 43.2634 104.347 43.1668 103.759 42.9737C103.18 42.7718 102.679 42.4601 102.258 42.0388C101.845 41.6086 101.521 41.06 101.284 40.3928C101.055 39.7168 100.941 38.9048 100.941 37.9568V28.7525H104.734V37.9831C104.734 38.4045 104.782 38.76 104.878 39.0497C104.984 39.3394 105.129 39.5764 105.313 39.7607C105.497 39.9451 105.712 40.0768 105.958 40.1558C106.213 40.2348 106.494 40.2743 106.801 40.2743C107.582 40.2743 108.197 40.1163 108.644 39.8002C109.101 39.4842 109.421 39.0541 109.606 38.5098C109.799 37.9568 109.895 37.3423 109.895 36.6663ZM123.866 39.0628C123.866 38.7907 123.787 38.5449 123.629 38.3255C123.471 38.106 123.177 37.9041 122.747 37.7197C122.326 37.5266 121.716 37.351 120.917 37.193C120.197 37.035 119.525 36.8375 118.902 36.6005C118.288 36.3547 117.752 36.0606 117.296 35.7182C116.848 35.3759 116.497 34.9721 116.242 34.5068C115.988 34.0328 115.86 33.4929 115.86 32.8872C115.86 32.2902 115.988 31.7284 116.242 31.2017C116.506 30.675 116.879 30.2097 117.361 29.8059C117.853 29.3933 118.45 29.0729 119.152 28.8447C119.863 28.6077 120.662 28.4892 121.549 28.4892C122.787 28.4892 123.849 28.6867 124.735 29.0817C125.631 29.4767 126.315 30.021 126.79 30.7145C127.272 31.3992 127.514 32.1805 127.514 33.0584H123.721C123.721 32.6897 123.642 32.3605 123.484 32.0708C123.335 31.7723 123.098 31.5397 122.773 31.3729C122.457 31.1973 122.045 31.1095 121.536 31.1095C121.114 31.1095 120.75 31.1842 120.443 31.3334C120.135 31.4738 119.898 31.667 119.732 31.9128C119.574 32.1498 119.495 32.4131 119.495 32.7028C119.495 32.9223 119.538 33.1198 119.626 33.2954C119.723 33.4622 119.876 33.6158 120.087 33.7563C120.298 33.8967 120.57 34.0284 120.904 34.1513C121.246 34.2654 121.667 34.3707 122.168 34.4673C123.195 34.678 124.112 34.9545 124.92 35.2969C125.727 35.6305 126.368 36.0869 126.842 36.6663C127.316 37.2369 127.553 37.9875 127.553 38.918C127.553 39.5501 127.413 40.1294 127.132 40.6561C126.851 41.1829 126.447 41.6437 125.92 42.0388C125.394 42.425 124.762 42.7279 124.024 42.9473C123.296 43.158 122.475 43.2634 121.562 43.2634C120.236 43.2634 119.113 43.0263 118.191 42.5523C117.278 42.0783 116.585 41.4769 116.11 40.7483C115.645 40.0109 115.413 39.256 115.413 38.4835H119.007C119.025 39.0014 119.157 39.4184 119.402 39.7344C119.657 40.0504 119.977 40.2787 120.364 40.4191C120.759 40.5596 121.184 40.6298 121.641 40.6298C122.133 40.6298 122.541 40.564 122.866 40.4323C123.19 40.2918 123.436 40.1075 123.603 39.8792C123.778 39.6422 123.866 39.3701 123.866 39.0628ZM133.716 22.7744V43H129.923V22.7744H133.716ZM133.176 35.3759H132.136C132.144 34.3839 132.276 33.471 132.531 32.637C132.785 31.7943 133.15 31.0656 133.624 30.4512C134.098 29.8279 134.664 29.3451 135.322 29.0027C135.989 28.6603 136.727 28.4892 137.534 28.4892C138.237 28.4892 138.873 28.5901 139.444 28.792C140.023 28.9851 140.519 29.3012 140.932 29.7401C141.353 30.1702 141.678 30.7365 141.906 31.4387C142.134 32.141 142.248 32.9925 142.248 33.9933V43H138.43V33.9669C138.43 33.3349 138.338 32.8389 138.153 32.479C137.978 32.1103 137.719 31.8513 137.376 31.7021C137.043 31.5441 136.63 31.4651 136.139 31.4651C135.594 31.4651 135.129 31.566 134.743 31.7679C134.365 31.9698 134.062 32.2507 133.834 32.6107C133.606 32.9618 133.439 33.3744 133.334 33.8484C133.229 34.3225 133.176 34.8316 133.176 35.3759Z" fill="#F44B74"/>
</svg>
