<svg width="19" height="17" viewBox="0 0 19 17" fill="none" xmlns="http://www.w3.org/2000/svg">
<path fill-rule="evenodd" clip-rule="evenodd" d="M6.41691 1.02095C6.55102 0.752747 6.82514 0.583328 7.125 0.583328H11.875C12.1749 0.583328 12.449 0.752747 12.5831 1.02095L13.5518 2.95833H16.2292C17.3222 2.95833 18.2083 3.84443 18.2083 4.93749V14.4375C18.2083 15.5306 17.3222 16.4167 16.2292 16.4167H2.77083C1.67777 16.4167 0.791668 15.5306 0.791668 14.4375V4.93749C0.791668 3.84443 1.67777 2.95833 2.77083 2.95833H5.44823L6.41691 1.02095ZM7.21845 2.95833H11.7816L11.3857 2.16666H7.61428L7.21845 2.95833ZM2.77083 4.54166C2.55222 4.54166 2.375 4.71888 2.375 4.93749V14.4375C2.375 14.6561 2.55222 14.8333 2.77083 14.8333H16.2292C16.4478 14.8333 16.625 14.6561 16.625 14.4375V4.93749C16.625 4.71888 16.4478 4.54166 16.2292 4.54166H2.77083ZM5.54167 9.68749C5.54167 7.50136 7.31387 5.72916 9.5 5.72916C11.6861 5.72916 13.4583 7.50136 13.4583 9.68749C13.4583 11.8736 11.6861 13.6458 9.5 13.6458C7.31387 13.6458 5.54167 11.8736 5.54167 9.68749ZM9.5 7.31249C8.18832 7.31249 7.125 8.37581 7.125 9.68749C7.125 10.9992 8.18832 12.0625 9.5 12.0625C10.8117 12.0625 11.875 10.9992 11.875 9.68749C11.875 8.37581 10.8117 7.31249 9.5 7.31249Z" fill="#F44B74"/>
</svg>
