<svg width="19" height="19" viewBox="0 0 19 19" fill="none" xmlns="http://www.w3.org/2000/svg">
<path fill-rule="evenodd" clip-rule="evenodd" d="M0.791748 9.50008C0.791748 4.6906 4.6906 0.791748 9.50008 0.791748C14.3096 0.791748 18.2084 4.6906 18.2084 9.50008C18.2084 9.71005 18.125 9.91141 17.9765 10.0599L10.0599 17.9765C9.75071 18.2857 9.24945 18.2857 8.94029 17.9765L1.02362 10.0599C0.875156 9.91141 0.791748 9.71005 0.791748 9.50008ZM2.58488 7.77684C2.61007 7.76197 2.63511 7.74741 2.66002 7.73318C3.12353 7.46832 3.61781 7.26902 4.10235 7.26902C4.5869 7.26902 5.08118 7.46832 5.54469 7.73318C5.8705 7.91935 6.22054 8.16112 6.59345 8.45297C7.49336 7.70317 8.46391 7.26902 9.50008 7.26902C10.5363 7.26902 11.5068 7.70317 12.4067 8.45297C12.7796 8.16112 13.1297 7.91935 13.4555 7.73318C13.919 7.46832 14.4133 7.26902 14.8978 7.26902C15.3824 7.26902 15.8766 7.46832 16.3401 7.73318C16.365 7.74741 16.3901 7.76197 16.4153 7.77685C15.6447 4.67439 12.8409 2.37508 9.50008 2.37508C6.15926 2.37508 3.35547 4.67439 2.58488 7.77684ZM16.2344 9.56289C15.9804 9.37256 15.7541 9.2219 15.5546 9.1079C15.1785 8.89296 14.973 8.85236 14.8978 8.85236C14.8226 8.85236 14.6172 8.89296 14.241 9.1079C13.9165 9.29337 13.5208 9.5759 13.051 9.96838L11.4636 14.3337L16.2344 9.56289ZM9.50008 15.1002L11.4558 9.72203C10.7305 9.09896 10.0804 8.85236 9.50008 8.85236C8.91976 8.85236 8.2697 9.09896 7.54438 9.72203L9.50008 15.1002ZM5.9492 9.96838C5.47934 9.5759 5.08371 9.29337 4.75914 9.1079C4.383 8.89296 4.17757 8.85236 4.10235 8.85236C4.02714 8.85236 3.82171 8.89296 3.44557 9.1079C3.24607 9.2219 3.01973 9.37256 2.76581 9.56289L7.53657 14.3337L5.9492 9.96838Z" fill="white"/>
</svg>
