<svg width="19" height="19" viewBox="0 0 19 19" fill="none" xmlns="http://www.w3.org/2000/svg">
<path fill-rule="evenodd" clip-rule="evenodd" d="M0.791748 9.49996C0.791748 4.69048 4.6906 0.791626 9.50008 0.791626C14.3096 0.791626 18.2084 4.69048 18.2084 9.49996C18.2084 9.70992 18.125 9.91129 17.9765 10.0598L10.0599 17.9764C9.75071 18.2856 9.24945 18.2856 8.94029 17.9764L1.02362 10.0598C0.875156 9.91129 0.791748 9.70992 0.791748 9.49996ZM2.58488 7.77672C2.61007 7.76184 2.63511 7.74729 2.66002 7.73305C3.12353 7.46819 3.61781 7.2689 4.10235 7.2689C4.5869 7.2689 5.08118 7.46819 5.54469 7.73305C5.8705 7.91923 6.22054 8.161 6.59345 8.45285C7.49336 7.70305 8.46391 7.2689 9.50008 7.2689C10.5363 7.2689 11.5068 7.70305 12.4067 8.45285C12.7796 8.161 13.1297 7.91923 13.4555 7.73305C13.919 7.46819 14.4133 7.2689 14.8978 7.2689C15.3824 7.2689 15.8766 7.46819 16.3401 7.73305C16.365 7.74729 16.3901 7.76185 16.4153 7.77673C15.6447 4.67427 12.8409 2.37496 9.50008 2.37496C6.15926 2.37496 3.35547 4.67427 2.58488 7.77672ZM16.2344 9.56277C15.9804 9.37244 15.7541 9.22177 15.5546 9.10777C15.1785 8.89284 14.973 8.85223 14.8978 8.85223C14.8226 8.85223 14.6172 8.89284 14.241 9.10777C13.9165 9.29325 13.5208 9.57578 13.051 9.96826L11.4636 14.3335L16.2344 9.56277ZM9.50008 15.1001L11.4558 9.72191C10.7305 9.09884 10.0804 8.85223 9.50008 8.85223C8.91976 8.85223 8.2697 9.09884 7.54438 9.72191L9.50008 15.1001ZM5.9492 9.96826C5.47934 9.57578 5.08371 9.29325 4.75914 9.10777C4.383 8.89284 4.17757 8.85223 4.10235 8.85223C4.02714 8.85223 3.82171 8.89284 3.44557 9.10777C3.24607 9.22177 3.01973 9.37244 2.76581 9.56277L7.53657 14.3335L5.9492 9.96826Z" fill="#F44B74"/>
</svg>
