<?xml version="1.0" encoding="utf-8"?>
<!-- Generator: Adobe Illustrator 24.3.0, SVG Export Plug-In . SVG Version: 6.00 Build 0)  -->
<svg version="1.1" id="Layer_1" xmlns="http://www.w3.org/2000/svg" xmlns:xlink="http://www.w3.org/1999/xlink" x="0px" y="0px"
	 viewBox="0 0 600 600" style="enable-background:new 0 0 600 600;" xml:space="preserve">
<style type="text/css">
	.st0{fill:#F44B74;}
	.st1{fill:#FF8AAB;}
	.st2{fill:#F44B74;stroke:#000000;stroke-width:4.0054;stroke-miterlimit:10;}
	.st3{fill:none;stroke:#000000;stroke-width:4.0054;stroke-miterlimit:10;}
	.st4{fill:none;stroke:#000000;stroke-width:2.2639;stroke-miterlimit:10;}
	.st5{fill:none;}
</style>
<g>
	<path class="st0" d="M272.5,227.5c-14.7,1.7-33.2,0.5-56.9-6.3l-0.1-0.1C239.3,227.9,257.8,229.1,272.5,227.5z"/>
	<path class="st0" d="M291.5,223.3c-3.3,1.2-7,2.2-11,2.9C284.5,225.5,288.1,224.4,291.5,223.3z"/>
	<polygon class="st0" points="300,348.1 299.9,348.3 218.9,226.2 	"/>
	<path class="st1" d="M309.6,214.8c-3.1,1.9-6.3,3.6-9.5,5.1c-2.6,1.2-5.5,2.4-8.6,3.4c-3.3,1.2-7,2.2-11,2.9c-2.6,0.5-5.2,1-8,1.2
		c-14.7,1.7-33.2,0.5-56.9-6.3c-0.1,0-0.1,0-0.2,0l-0.4-0.8l-5.8-8.9h0.4c32.2-13.4,68.6-12.2,99.8,3.3
		C309.5,214.7,309.5,214.8,309.6,214.8z"/>
	<path class="st2" d="M396.7,203.7l-50.2,75.3l-0.1,0.2l-46.3,69l-81.1-121.9l-3.4-5.1c23.8,6.8,42.3,8,56.9,6.3
		c2.8-0.3,5.5-0.7,8-1.2c4-0.8,7.6-1.8,11-2.9c3.1-1,5.9-2.2,8.6-3.4c3.3-1.5,6.5-3.2,9.5-5.1c0,0,0.1,0,0.1-0.1
		c12.8-7.4,23.2-16.1,39-19.2l0,0c2.7-0.5,5.4-0.9,8.1-1c10.2-0.5,20.4,1.1,29.9,4.6c1.2,0.5,2.4,0.9,3.6,1.4l0,0
		c1.2,0.5,2.4,1.1,3.6,1.7C394.8,202.7,395.7,203.1,396.7,203.7z"/>
	<path class="st3" d="M386.7,199.1c-9.5-3.5-19.7-5.1-29.9-4.6c-2.7,0.2-5.5,0.5-8.1,1l0,0c-15.8,3.1-26.2,11.8-39,19.2
		c0,0-0.1,0.1-0.1,0.1c-3.1,1.9-6.3,3.6-9.5,5.1c-2.6,1.2-5.5,2.4-8.6,3.4c-3.3,1.2-7,2.2-11,2.9c-2.6,0.5-5.2,1-8,1.2
		c-14.7,1.7-33.2,0.5-56.9-6.3l-0.1-0.1l-0.1-0.1c42,12.1,67.5,6.6,84.6-1.2c3.2-1.5,6.4-3.2,9.4-5c0.1,0,0.1-0.1,0.2-0.1
		c12.8-7.7,23.4-16.2,39-19.3c2.7-0.5,5.5-0.9,8.2-1.1C367,193.8,377.2,195.5,386.7,199.1z"/>
	<line class="st3" x1="300.4" y1="521.9" x2="300" y2="348.1"/>
	<polyline class="st3" points="215,220.3 146.5,118.7 147.4,118.7 385.3,118.7 453.5,118.7 396.7,203.7 	"/>
	<polyline class="st3" points="215.4,221 215,220.3 209.1,211.4 147.4,118.7 	"/>
	<path class="st3" d="M372.8,534.8c0,6.3-32.4,11.6-72.4,11.6s-72.4-5.1-72.4-11.6s32.4-11.6,72.4-11.6S372.8,528.7,372.8,534.8z"/>
	<path class="st3" d="M396.7,203.7L396.7,203.7"/>
	<line class="st3" x1="215.4" y1="221" x2="215.3" y2="221"/>
	<path class="st4" d="M209.7,211.1c32.2-13.5,68.7-12.2,100,3.4"/>
	<path class="st2" d="M319.1,108.5l51.3,51.3l51.3-51.3c6-6,9.4-14.2,9.4-22.8v-1.4c0-17-13.8-30.8-30.8-30.8
		c-9.3,0-18.2,4.2-24,11.5l-5.9,7.4l-5.9-7.4c-5.8-7.3-14.7-11.5-24-11.5c-17,0-30.8,13.8-30.8,30.8v1.4
		C309.7,94.3,313.1,102.5,319.1,108.5z"/>
</g>
<rect class="st5" width="600" height="600"/>
</svg>
