<svg width="15" height="19" viewBox="0 0 15 19" fill="none" xmlns="http://www.w3.org/2000/svg">
<path fill-rule="evenodd" clip-rule="evenodd" d="M3.93742 4.35425C3.93742 2.38674 5.5324 0.791748 7.49992 0.791748C9.46744 0.791748 11.0624 2.38674 11.0624 4.35425V9.50008C11.0624 11.4676 9.46743 13.0626 7.49992 13.0626C5.5324 13.0626 3.93742 11.4676 3.93742 9.50008V4.35425ZM7.49992 2.37508C6.40685 2.37508 5.52075 3.26119 5.52075 4.35425V9.50008C5.52075 10.5931 6.40685 11.4792 7.49992 11.4792C8.59298 11.4792 9.47908 10.5931 9.47908 9.50008V4.35425C9.47908 3.26119 8.59298 2.37508 7.49992 2.37508ZM1.56242 8.31258C1.99964 8.31258 2.35409 8.66702 2.35409 9.10425C2.35409 11.9462 4.65794 14.2501 7.49992 14.2501C10.3419 14.2501 12.6458 11.9462 12.6458 9.10425C12.6458 8.66702 13.0002 8.31258 13.4374 8.31258C13.8746 8.31258 14.2291 8.66702 14.2291 9.10425C14.2291 12.5528 11.6349 15.3955 8.29158 15.7873V17.4167C8.29158 17.854 7.93714 18.2084 7.49992 18.2084C7.06269 18.2084 6.70825 17.854 6.70825 17.4167V15.7873C3.3649 15.3955 0.770752 12.5528 0.770752 9.10425C0.770752 8.66702 1.12519 8.31258 1.56242 8.31258Z" fill="white"/>
</svg>
