<svg width="9" height="9" viewBox="0 0 9 9" fill="none" xmlns="http://www.w3.org/2000/svg">
<path d="M8.1843 1.03159L5.69833 7.9158C5.68155 7.95241 5.65461 7.98344 5.62071 8.0052C5.58682 8.02695 5.54738 8.03852 5.5071 8.03852C5.46683 8.03852 5.42739 8.02695 5.3935 8.0052C5.3596 7.98344 5.33266 7.95241 5.31588 7.9158L3.97728 5.2386L1.30009 3.90001C1.26347 3.88323 1.23244 3.85629 1.21069 3.82239C1.18893 3.78849 1.17737 3.74906 1.17737 3.70878C1.17737 3.6685 1.18893 3.62907 1.21069 3.59517C1.23244 3.56127 1.26347 3.53433 1.30009 3.51755L8.1843 1.03159Z" stroke="white" stroke-width="1.14737" stroke-linecap="round" stroke-linejoin="round"/>
</svg>
