<?xml version="1.0" encoding="utf-8"?>
<!-- Generator: Adobe Illustrator 24.3.0, SVG Export Plug-In . SVG Version: 6.00 Build 0)  -->
<svg version="1.1" id="Layer_1" xmlns="http://www.w3.org/2000/svg" xmlns:xlink="http://www.w3.org/1999/xlink" x="0px" y="0px"
	 viewBox="0 0 600 300" style="enable-background:new 0 0 600 300;" xml:space="preserve">
<style type="text/css">
	.st0{fill:#F44B74;}
	.st1{fill:#FF8AAB;}
	.st2{fill:#F44B74;stroke:#FFFFFF;stroke-width:1.3193;stroke-miterlimit:10;}
	.st3{fill:none;stroke:#FFFFFF;stroke-width:1.3193;stroke-miterlimit:10;}
	.st4{fill:none;stroke:#FFFFFF;stroke-width:0.7457;stroke-miterlimit:10;}
	.st5{enable-background:new    ;}
	.st6{fill:#FFFFFF;}
</style>
<path class="st0" d="M276.7,81.1c-4.8,0.6-10.9,0.2-18.8-2.1l0,0C265.8,81.2,271.9,81.6,276.7,81.1z"/>
<path class="st0" d="M283,79.7c-1.1,0.4-2.3,0.7-3.6,1C280.7,80.4,281.9,80.1,283,79.7z"/>
<polygon class="st0" points="285.8,120.8 285.8,120.9 259.1,80.7 "/>
<path class="st1" d="M288.9,76.9c-1,0.6-2.1,1.2-3.1,1.7c-0.9,0.4-1.8,0.8-2.8,1.1c-1.1,0.4-2.3,0.7-3.6,1c-0.8,0.2-1.7,0.3-2.6,0.4
	c-4.8,0.6-10.9,0.2-18.8-2.1c0,0,0,0,0,0l-0.1-0.3l-1.9-2.9h0.1C266.6,71.4,278.6,71.8,288.9,76.9C288.9,76.9,288.9,76.9,288.9,76.9
	z"/>
<path class="st2" d="M317.6,73.2L301.1,98l0,0.1l-15.3,22.7l-26.7-40.2L258,79c7.8,2.2,13.9,2.6,18.8,2.1c0.9-0.1,1.8-0.2,2.6-0.4
	c1.3-0.2,2.5-0.6,3.6-1c1-0.3,2-0.7,2.8-1.1c1.1-0.5,2.1-1.1,3.1-1.7c0,0,0,0,0,0c4.2-2.4,7.7-5.3,12.9-6.3l0,0
	c0.9-0.2,1.8-0.3,2.7-0.3c3.4-0.2,6.7,0.4,9.9,1.5c0.4,0.2,0.8,0.3,1.2,0.5l0,0c0.4,0.2,0.8,0.3,1.2,0.5
	C317,72.9,317.3,73,317.6,73.2z"/>
<path class="st3" d="M314.3,71.7c-3.1-1.1-6.5-1.7-9.9-1.5c-0.9,0-1.8,0.2-2.7,0.3l0,0c-5.2,1-8.6,3.9-12.9,6.3c0,0,0,0,0,0
	c-1,0.6-2.1,1.2-3.1,1.7c-0.9,0.4-1.8,0.8-2.8,1.1c-1.1,0.4-2.3,0.7-3.6,1c-0.8,0.2-1.7,0.3-2.6,0.4c-4.8,0.6-10.9,0.2-18.8-2.1l0,0
	l0,0c13.8,4,22.2,2.2,27.9-0.4c1.1-0.5,2.1-1,3.1-1.6c0,0,0,0,0,0c4.2-2.5,7.7-5.3,12.9-6.3c0.9-0.2,1.8-0.3,2.7-0.3
	C307.9,70,311.2,70.5,314.3,71.7z"/>
<line class="st3" x1="285.9" y1="178.1" x2="285.8" y2="120.8"/>
<polyline class="st3" points="257.8,78.7 235.2,45.2 235.5,45.2 313.9,45.2 336.3,45.2 317.6,73.2 "/>
<polyline class="st3" points="257.9,78.9 257.8,78.7 255.8,75.8 235.5,45.2 "/>
<path class="st3" d="M309.8,182.3c0,2.1-10.7,3.8-23.8,3.8s-23.9-1.7-23.9-3.8s10.7-3.8,23.9-3.8S309.8,180.3,309.8,182.3z"/>
<path class="st3" d="M317.6,73.2L317.6,73.2"/>
<line class="st3" x1="257.9" y1="78.9" x2="257.9" y2="78.9"/>
<path class="st4" d="M256,75.7c10.6-4.4,22.6-4,32.9,1.1"/>
<g class="st5">
	<path class="st6" d="M175,248v-40.8h14.3c4.9,0,8.7,0.9,11.3,2.8c2.6,1.9,3.8,4.7,3.8,8.3c0,2-0.5,3.8-1.5,5.3s-2.5,2.6-4.3,3.3
		c2.1,0.5,3.7,1.6,4.9,3.2c1.2,1.6,1.8,3.5,1.8,5.8c0,3.9-1.3,6.9-3.8,8.9c-2.5,2-6.1,3-10.7,3.1H175z M183.4,224.3h6.2
		c4.2-0.1,6.4-1.8,6.4-5.1c0-1.8-0.5-3.2-1.6-4s-2.8-1.2-5.1-1.2h-5.9V224.3z M183.4,230.3v11h7.2c2,0,3.5-0.5,4.6-1.4
		c1.1-0.9,1.7-2.2,1.7-3.9c0-3.7-1.9-5.6-5.8-5.7H183.4z"/>
	<path class="st6" d="M228.6,248c-0.4-0.7-0.6-1.6-0.8-2.7c-2,2.2-4.5,3.3-7.6,3.3c-3,0-5.4-0.9-7.4-2.6c-2-1.7-2.9-3.9-2.9-6.5
		c0-3.2,1.2-5.7,3.6-7.4c2.4-1.7,5.8-2.6,10.3-2.6h3.7v-1.7c0-1.4-0.4-2.5-1.1-3.4c-0.7-0.8-1.9-1.3-3.4-1.3c-1.4,0-2.4,0.3-3.2,1
		c-0.8,0.7-1.2,1.6-1.2,2.7h-8.1c0-1.8,0.5-3.4,1.6-4.9c1.1-1.5,2.6-2.7,4.6-3.5s4.2-1.3,6.7-1.3c3.7,0,6.7,0.9,8.9,2.8
		c2.2,1.9,3.3,4.5,3.3,7.9V241c0,2.9,0.4,5.1,1.2,6.5v0.5H228.6z M221.9,242.4c1.2,0,2.3-0.3,3.3-0.8s1.8-1.2,2.2-2.1v-5.2h-3
		c-4.1,0-6.2,1.4-6.5,4.2l0,0.5c0,1,0.4,1.8,1.1,2.5C219.7,242.1,220.7,242.4,221.9,242.4z"/>
	<path class="st6" d="M258.9,225.3c-1.1-0.1-2.1-0.2-2.9-0.2c-3.1,0-5.1,1-6,3.1V248h-8.1v-30.3h7.6l0.2,3.6
		c1.6-2.8,3.9-4.2,6.8-4.2c0.9,0,1.7,0.1,2.5,0.4L258.9,225.3z"/>
</g>
<g class="st5">
	<path class="st0" d="M295.3,234.5c-0.3,4.4-1.9,7.8-4.9,10.4c-2.9,2.5-6.8,3.8-11.6,3.8c-5.2,0-9.3-1.8-12.3-5.3
		c-3-3.5-4.5-8.4-4.5-14.5v-2.5c0-3.9,0.7-7.4,2.1-10.4c1.4-3,3.4-5.3,5.9-6.9c2.6-1.6,5.5-2.4,8.9-2.4c4.7,0,8.5,1.3,11.4,3.8
		c2.9,2.5,4.5,6.1,5,10.6h-8.4c-0.2-2.6-0.9-4.5-2.2-5.7s-3.2-1.8-5.8-1.8c-2.8,0-4.9,1-6.3,3c-1.4,2-2.1,5.1-2.1,9.3v3.1
		c0,4.4,0.7,7.6,2,9.7s3.4,3.1,6.3,3.1c2.6,0,4.5-0.6,5.8-1.8c1.3-1.2,2-3,2.2-5.5H295.3z"/>
	<path class="st0" d="M317.3,225.3c-1.1-0.1-2.1-0.2-2.9-0.2c-3.1,0-5.1,1-6,3.1V248h-8.1v-30.3h7.6l0.2,3.6
		c1.6-2.8,3.9-4.2,6.8-4.2c0.9,0,1.7,0.1,2.5,0.4L317.3,225.3z"/>
	<path class="st0" d="M339.3,245c-2,2.4-4.8,3.6-8.3,3.6c-3.2,0-5.7-0.9-7.4-2.8c-1.7-1.9-2.6-4.6-2.6-8.2v-19.9h8.1v19.6
		c0,3.2,1.4,4.7,4.3,4.7c2.7,0,4.6-1,5.7-2.9v-21.5h8.1V248h-7.6L339.3,245z"/>
	<path class="st0" d="M369.7,239.7c0-1-0.5-1.8-1.5-2.3s-2.6-1.1-4.7-1.5c-7.2-1.5-10.8-4.6-10.8-9.2c0-2.7,1.1-4.9,3.3-6.7
		c2.2-1.8,5.1-2.7,8.8-2.7c3.8,0,6.9,0.9,9.2,2.7c2.3,1.8,3.5,4.2,3.5,7.1h-8.1c0-1.2-0.4-2.1-1.1-2.9c-0.7-0.8-1.9-1.1-3.5-1.1
		c-1.4,0-2.4,0.3-3.2,0.9c-0.7,0.6-1.1,1.4-1.1,2.4c0,0.9,0.4,1.6,1.3,2.2c0.8,0.6,2.3,1,4.3,1.4c2,0.4,3.7,0.9,5.1,1.4
		c4.3,1.6,6.4,4.3,6.4,8.2c0,2.8-1.2,5-3.6,6.7c-2.4,1.7-5.4,2.6-9.2,2.6c-2.5,0-4.8-0.5-6.8-1.4c-2-0.9-3.5-2.1-4.6-3.7
		c-1.1-1.6-1.7-3.3-1.7-5.1h7.7c0.1,1.4,0.6,2.5,1.6,3.3c1,0.8,2.3,1.1,4,1.1c1.5,0,2.7-0.3,3.5-0.9
		C369.3,241.4,369.7,240.6,369.7,239.7z"/>
	<path class="st0" d="M390.7,221c2.1-2.6,4.8-3.9,8.1-3.9c6.6,0,9.9,3.8,10,11.5V248h-8.1v-19.2c0-1.7-0.4-3-1.1-3.9
		c-0.7-0.8-2-1.2-3.7-1.2c-2.4,0-4.1,0.9-5.2,2.7V248h-8.1v-43h8.1V221z"/>
</g>
<path class="st2" d="M292.1,41.9L309,58.8l16.9-16.9c2-2,3.1-4.7,3.1-7.5v-0.5c0-5.6-4.5-10.1-10.1-10.1c-3.1,0-6,1.4-7.9,3.8
	l-2,2.4l-2-2.4c-1.9-2.4-4.8-3.8-7.9-3.8c-5.6,0-10.1,4.5-10.1,10.1v0.5C289,37.2,290.1,39.9,292.1,41.9z"/>
</svg>
