<svg width="17" height="18" viewBox="0 0 17 18" fill="none" xmlns="http://www.w3.org/2000/svg">
<path fill-rule="evenodd" clip-rule="evenodd" d="M15.7192 0.961731C15.9096 1.11185 16.0208 1.34095 16.0208 1.58342V4.78342C16.021 4.79466 16.021 4.80587 16.0208 4.81705V13.6168C16.0208 14.841 15.0283 15.8334 13.8041 15.8334H12.2603C11.058 15.8334 10.0833 14.8587 10.0833 13.6563C10.0833 12.454 11.058 11.4793 12.2603 11.4793H14.4374V5.80056L6.12492 7.76862V15.2001C6.12492 16.4243 5.13247 17.4168 3.90825 17.4168H2.76034C1.55796 17.4168 0.583252 16.442 0.583252 15.2397C0.583252 14.0373 1.55796 13.0626 2.76034 13.0626H4.54159V7.15863C4.54135 7.1474 4.54135 7.13621 4.54159 7.12504V3.95842C4.54159 3.59237 4.79255 3.27404 5.1485 3.18862L15.0443 0.813615C15.2801 0.757029 15.5288 0.811611 15.7192 0.961731ZM6.12492 6.14152L14.4374 4.17345V2.58757L6.12492 4.58257V6.14152ZM4.54159 14.6459H2.76034C2.43242 14.6459 2.16659 14.9118 2.16659 15.2397C2.16659 15.5676 2.43242 15.8334 2.76034 15.8334H3.90825C4.25802 15.8334 4.54159 15.5499 4.54159 15.2001V14.6459ZM14.4374 13.0626H12.2603C11.9324 13.0626 11.6666 13.3284 11.6666 13.6563C11.6666 13.9843 11.9324 14.2501 12.2603 14.2501H13.8041C14.1539 14.2501 14.4374 13.9665 14.4374 13.6168V13.0626Z" fill="white"/>
</svg>
