<svg width="19" height="19" viewBox="0 0 19 19" fill="none" xmlns="http://www.w3.org/2000/svg">
<path fill-rule="evenodd" clip-rule="evenodd" d="M16.7192 0.961609C16.9096 1.11173 17.0208 1.34083 17.0208 1.5833V4.7833C17.021 4.79454 17.021 4.80575 17.0208 4.81692V13.6166C17.0208 14.8409 16.0283 15.8333 14.8041 15.8333H13.2603C12.058 15.8333 11.0833 14.8586 11.0833 13.6562C11.0833 12.4538 12.058 11.4791 13.2603 11.4791H15.4374V5.80043L7.12492 7.7685V15.2C7.12492 16.4242 6.13247 17.4166 4.90825 17.4166H3.76034C2.55796 17.4166 1.58325 16.4419 1.58325 15.2396C1.58325 14.0372 2.55796 13.0625 3.76034 13.0625H5.54159V7.15851C5.54135 7.14728 5.54135 7.13608 5.54159 7.12492V3.9583C5.54159 3.59224 5.79255 3.27392 6.1485 3.18849L16.0443 0.813493C16.2801 0.756907 16.5288 0.811489 16.7192 0.961609ZM7.12492 6.1414L15.4374 4.17333V2.58745L7.12492 4.58245V6.1414ZM5.54159 14.6458H3.76034C3.43242 14.6458 3.16659 14.9116 3.16659 15.2396C3.16659 15.5675 3.43242 15.8333 3.76034 15.8333H4.90825C5.25802 15.8333 5.54159 15.5497 5.54159 15.2V14.6458ZM15.4374 13.0625H13.2603C12.9324 13.0625 12.6666 13.3283 12.6666 13.6562C12.6666 13.9841 12.9324 14.25 13.2603 14.25H14.8041C15.1539 14.25 15.4374 13.9664 15.4374 13.6166V13.0625Z" fill="#F44B74"/>
</svg>
