<svg width="19" height="18" viewBox="0 0 19 18" fill="none" xmlns="http://www.w3.org/2000/svg">
<path fill-rule="evenodd" clip-rule="evenodd" d="M11.4791 2.95833C11.4791 1.42804 12.7196 0.1875 14.2499 0.1875C15.7802 0.1875 17.0207 1.42804 17.0207 2.95833C17.0207 4.48861 15.7802 5.72917 14.2499 5.72917C12.7196 5.72917 11.4791 4.48861 11.4791 2.95833ZM14.2499 1.77083C13.5941 1.77083 13.0624 2.3025 13.0624 2.95833C13.0624 3.61416 13.5941 4.14583 14.2499 4.14583C14.9057 4.14583 15.4374 3.61416 15.4374 2.95833C15.4374 2.3025 14.9057 1.77083 14.2499 1.77083ZM7.65876 3.79278C7.85542 3.72469 8.07097 3.73677 8.25879 3.82641L12.6117 5.90398C12.862 6.02346 13.0316 6.26522 13.0586 6.54127C13.0857 6.81732 12.9663 7.08739 12.7439 7.25316L9.29641 9.82306L12.706 12.0676C12.8885 12.1877 13.0132 12.3779 13.0507 12.5931C13.0881 12.8083 13.035 13.0294 12.9039 13.2041L10.1363 16.8911C9.87385 17.2408 9.37761 17.3115 9.02793 17.049C8.67825 16.7865 8.60756 16.2903 8.87004 15.9406L11.1321 12.9271L7.48249 10.5246C7.26687 10.3826 7.134 10.1445 7.12646 9.88644C7.11892 9.6284 7.23767 9.3829 7.44464 9.22861L10.7457 6.76782L7.86991 5.39524L5.00892 6.38586C4.59577 6.52892 4.14486 6.30996 4.0018 5.8968C3.85875 5.48364 4.07771 5.03274 4.49087 4.88968L7.65876 3.79278ZM17.9934 5.37145C18.2928 5.69009 18.2772 6.1911 17.9586 6.49049L15.5843 8.72141C15.3352 8.95541 14.9641 9.0032 14.6639 8.83994L13.6024 8.26265C13.2183 8.05377 13.0763 7.57306 13.2852 7.18896C13.4941 6.80486 13.9748 6.66282 14.3589 6.87171L14.9174 7.17543L16.8744 5.3366C17.193 5.03721 17.694 5.05281 17.9934 5.37145ZM7.14798 10.8562C7.49622 11.1205 7.56421 11.6172 7.29984 11.9654L6.12433 13.5138C6.05864 13.6004 5.97583 13.6725 5.88107 13.7256L1.97207 15.9182C1.59073 16.1321 1.1082 15.9964 0.894311 15.615C0.680417 15.2337 0.816154 14.7512 1.19749 14.5373L4.96283 12.4253L6.03874 11.008C6.30312 10.6598 6.79974 10.5918 7.14798 10.8562Z" fill="#F44B74"/>
</svg>
