<svg width="15" height="19" viewBox="0 0 15 19" fill="none" xmlns="http://www.w3.org/2000/svg">
<path fill-rule="evenodd" clip-rule="evenodd" d="M7.5 2.37496C6.40693 2.37496 5.52083 3.26106 5.52083 4.35413V4.74996H9.47917V4.35413C9.47917 3.26106 8.59307 2.37496 7.5 2.37496ZM11.0625 4.74996V4.35413C11.0625 2.38661 9.46752 0.791626 7.5 0.791626C5.53248 0.791626 3.9375 2.38661 3.9375 4.35413V4.74996H1.95833C1.08388 4.74996 0.375 5.45884 0.375 6.33329V16.625C0.375 17.4994 1.08388 18.2083 1.95833 18.2083H13.0417C13.9161 18.2083 14.625 17.4994 14.625 16.625V6.33329C14.625 5.45884 13.9161 4.74996 13.0417 4.74996H11.0625ZM9.47917 6.33329V7.12496C9.47917 7.56219 9.83361 7.91663 10.2708 7.91663C10.7081 7.91663 11.0625 7.56219 11.0625 7.12496V6.33329H13.0417V16.625H1.95833V6.33329H3.9375V7.12496C3.9375 7.56219 4.29194 7.91663 4.72917 7.91663C5.16639 7.91663 5.52083 7.56219 5.52083 7.12496V6.33329H9.47917Z" fill="white"/>
</svg>
