<svg width="19" height="15" viewBox="0 0 19 15" fill="none" xmlns="http://www.w3.org/2000/svg">
<path d="M5.54162 10.2708C6.59218 10.2708 7.39658 10.464 8.62597 10.9854L9.0786 11.1833L9.57309 11.4098L10.3003 11.7497L10.719 11.9383C10.7855 11.9675 10.8504 11.9957 10.9139 12.0229L11.2779 12.1736C12.1489 12.5202 12.744 12.6458 13.4583 12.6458C14.209 12.6458 15.0436 12.4455 15.8856 12.1087C16.1859 11.9886 16.465 11.8598 16.7144 11.7315L16.9271 11.6183L17.0093 11.5711C17.3842 11.3462 17.8705 11.4678 18.0955 11.8427C18.3204 12.2176 18.1988 12.7039 17.8239 12.9288L17.6093 13.0512L17.3427 13.1902C17.1 13.3117 16.807 13.4454 16.4737 13.5788C15.4602 13.9841 14.4394 14.2291 13.4583 14.2291C12.4077 14.2291 11.6033 14.036 10.3739 13.5145L9.92131 13.3166L9.42682 13.0902L8.69961 12.7503L8.28087 12.5617C8.21439 12.5324 8.14949 12.5042 8.08605 12.4771L7.72199 12.3264C6.85099 11.9798 6.25593 11.8541 5.54162 11.8541C4.79095 11.8541 3.95634 12.0545 3.11429 12.3913C2.81398 12.5114 2.53491 12.6402 2.28553 12.7685L2.07285 12.8817L1.9906 12.9288C1.61568 13.1538 1.12939 13.0322 0.904442 12.6573C0.679491 12.2824 0.801063 11.7961 1.17598 11.5711L1.39059 11.4488L1.65719 11.3097C1.89996 11.1883 2.19294 11.0545 2.52625 10.9212C3.53967 10.5158 4.56053 10.2708 5.54162 10.2708Z" fill="#F44B74"/>
<path d="M5.54162 5.52081C6.59218 5.52081 7.39658 5.714 8.62597 6.23544L9.0786 6.43333L9.57309 6.65979L10.3003 6.9997L10.719 7.18828C10.7855 7.21754 10.8504 7.24573 10.9139 7.27289L11.2779 7.42356C12.1489 7.7702 12.744 7.89581 13.4583 7.89581C14.209 7.89581 15.0436 7.69551 15.8856 7.35869C16.1859 7.23856 16.465 7.10976 16.7144 6.98151L16.9271 6.86826L17.0093 6.82113C17.3842 6.59618 17.8705 6.71775 18.0955 7.09267C18.3204 7.46759 18.1988 7.95388 17.8239 8.17883L17.6093 8.3012L17.3427 8.44024C17.1 8.5617 16.807 8.69545 16.4737 8.82877C15.4602 9.23414 14.4394 9.47915 13.4583 9.47915C12.4077 9.47915 11.6033 9.28595 10.3739 8.76452L9.92131 8.56663L9.42682 8.34017L8.69961 8.00026L8.28087 7.81167C8.21439 7.78242 8.14949 7.75423 8.08605 7.72707L7.72199 7.5764C6.85099 7.22976 6.25593 7.10415 5.54162 7.10415C4.79095 7.10415 3.95634 7.30445 3.11429 7.64127C2.81398 7.76139 2.53491 7.8902 2.28553 8.01845L2.07285 8.1317L1.9906 8.17883C1.61568 8.40378 1.12939 8.28221 0.904442 7.90729C0.679491 7.53237 0.801063 7.04608 1.17598 6.82113L1.39059 6.69876L1.65719 6.55972C1.89996 6.43826 2.19294 6.30451 2.52625 6.17119C3.53967 5.76582 4.56053 5.52081 5.54162 5.52081Z" fill="#F44B74"/>
<path d="M5.54162 0.770813C6.59218 0.770813 7.39658 0.964004 8.62597 1.48544L9.0786 1.68333L9.57309 1.90979L10.3003 2.2497L10.719 2.43828C10.7855 2.46754 10.8504 2.49573 10.9139 2.52289L11.2779 2.67356C12.1489 3.0202 12.744 3.14581 13.4583 3.14581C14.209 3.14581 15.0436 2.94551 15.8856 2.60869C16.1859 2.48856 16.465 2.35976 16.7144 2.23151L16.9271 2.11826L17.0093 2.07113C17.3842 1.84618 17.8705 1.96775 18.0955 2.34267C18.3204 2.71759 18.1988 3.20388 17.8239 3.42883L17.6093 3.5512L17.3427 3.69024C17.1 3.8117 16.807 3.94545 16.4737 4.07877C15.4602 4.48414 14.4394 4.72915 13.4583 4.72915C12.4077 4.72915 11.6033 4.53596 10.3739 4.01452L9.92131 3.81663L9.42682 3.59017L8.69961 3.25026L8.28087 3.06167C8.21439 3.03242 8.14949 3.00423 8.08605 2.97707L7.72199 2.8264C6.85099 2.47976 6.25593 2.35415 5.54162 2.35415C4.79095 2.35415 3.95634 2.55445 3.11429 2.89127C2.81398 3.0114 2.53491 3.1402 2.28553 3.26845L2.07285 3.3817L1.9906 3.42883C1.61568 3.65378 1.12939 3.53221 0.904442 3.15729C0.679491 2.78237 0.801063 2.29608 1.17598 2.07113L1.39059 1.94876L1.65719 1.80972C1.89996 1.68826 2.19294 1.55451 2.52625 1.42119C3.53967 1.01582 4.56053 0.770813 5.54162 0.770813Z" fill="#F44B74"/>
</svg>
