<svg width="19" height="15" viewBox="0 0 19 15" fill="none" xmlns="http://www.w3.org/2000/svg">
<path d="M5.54162 10.2708C6.59218 10.2708 7.39658 10.4639 8.62597 10.9854L9.0786 11.1833L9.57309 11.4097L10.3003 11.7496L10.719 11.9382C10.7855 11.9675 10.8504 11.9957 10.9139 12.0228L11.2779 12.1735C12.1489 12.5201 12.744 12.6458 13.4583 12.6458C14.209 12.6458 15.0436 12.4454 15.8856 12.1086C16.1859 11.9885 16.465 11.8597 16.7144 11.7314L16.9271 11.6182L17.0093 11.5711C17.3842 11.3461 17.8705 11.4677 18.0955 11.8426C18.3204 12.2175 18.1988 12.7038 17.8239 12.9288L17.6093 13.0511L17.3427 13.1902C17.1 13.3116 16.807 13.4454 16.4737 13.5787C15.4602 13.9841 14.4394 14.2291 13.4583 14.2291C12.4077 14.2291 11.6033 14.0359 10.3739 13.5145L9.92131 13.3166L9.42682 13.0901L8.69961 12.7502L8.28087 12.5616C8.21439 12.5324 8.14949 12.5042 8.08605 12.477L7.72199 12.3263C6.85099 11.9797 6.25593 11.8541 5.54162 11.8541C4.79095 11.8541 3.95634 12.0544 3.11429 12.3912C2.81398 12.5113 2.53491 12.6401 2.28553 12.7684L2.07285 12.8816L1.9906 12.9288C1.61568 13.1537 1.12939 13.0321 0.904442 12.6572C0.679491 12.2823 0.801063 11.796 1.17598 11.5711L1.39059 11.4487L1.65719 11.3097C1.89996 11.1882 2.19294 11.0545 2.52625 10.9211C3.53967 10.5158 4.56053 10.2708 5.54162 10.2708Z" fill="white"/>
<path d="M5.54162 5.52075C6.59218 5.52075 7.39658 5.71394 8.62597 6.23538L9.0786 6.43326L9.57309 6.65973L10.3003 6.99964L10.719 7.18822C10.7855 7.21748 10.8504 7.24567 10.9139 7.27282L11.2779 7.4235C12.1489 7.77014 12.744 7.89575 13.4583 7.89575C14.209 7.89575 15.0436 7.69545 15.8856 7.35862C16.1859 7.2385 16.465 7.1097 16.7144 6.98145L16.9271 6.8682L17.0093 6.82107C17.3842 6.59612 17.8705 6.71769 18.0955 7.09261C18.3204 7.46753 18.1988 7.95382 17.8239 8.17877L17.6093 8.30114L17.3427 8.44018C17.1 8.56164 16.807 8.69539 16.4737 8.82871C15.4602 9.23408 14.4394 9.47908 13.4583 9.47908C12.4077 9.47908 11.6033 9.28589 10.3739 8.76446L9.92131 8.56657L9.42682 8.34011L8.69961 8.0002L8.28087 7.81161C8.21439 7.78236 8.14949 7.75416 8.08605 7.72701L7.72199 7.57634C6.85099 7.2297 6.25593 7.10408 5.54162 7.10408C4.79095 7.10408 3.95634 7.30439 3.11429 7.64121C2.81398 7.76133 2.53491 7.89014 2.28553 8.01839L2.07285 8.13164L1.9906 8.17877C1.61568 8.40372 1.12939 8.28215 0.904442 7.90723C0.679491 7.53231 0.801063 7.04602 1.17598 6.82107L1.39059 6.6987L1.65719 6.55965C1.89996 6.43819 2.19294 6.30445 2.52625 6.17112C3.53967 5.76576 4.56053 5.52075 5.54162 5.52075Z" fill="white"/>
<path d="M5.54162 0.770752C6.59218 0.770752 7.39658 0.963943 8.62597 1.48538L9.0786 1.68326L9.57309 1.90973L10.3003 2.24964L10.719 2.43822C10.7855 2.46748 10.8504 2.49567 10.9139 2.52282L11.2779 2.6735C12.1489 3.02014 12.744 3.14575 13.4583 3.14575C14.209 3.14575 15.0436 2.94545 15.8856 2.60862C16.1859 2.4885 16.465 2.3597 16.7144 2.23145L16.9271 2.1182L17.0093 2.07107C17.3842 1.84612 17.8705 1.96769 18.0955 2.34261C18.3204 2.71753 18.1988 3.20382 17.8239 3.42877L17.6093 3.55114L17.3427 3.69018C17.1 3.81164 16.807 3.94539 16.4737 4.07871C15.4602 4.48408 14.4394 4.72908 13.4583 4.72908C12.4077 4.72908 11.6033 4.53589 10.3739 4.01446L9.92131 3.81657L9.42682 3.59011L8.69961 3.2502L8.28087 3.06161C8.21439 3.03236 8.14949 3.00416 8.08605 2.97701L7.72199 2.82634C6.85099 2.4797 6.25593 2.35409 5.54162 2.35409C4.79095 2.35409 3.95634 2.55439 3.11429 2.89121C2.81398 3.01133 2.53491 3.14014 2.28553 3.26839L2.07285 3.38164L1.9906 3.42877C1.61568 3.65372 1.12939 3.53215 0.904442 3.15723C0.679491 2.78231 0.801063 2.29602 1.17598 2.07107L1.39059 1.9487L1.65719 1.80965C1.89996 1.68819 2.19294 1.55445 2.52625 1.42112C3.53967 1.01576 4.56053 0.770752 5.54162 0.770752Z" fill="white"/>
</svg>
