<svg width="19" height="19" viewBox="0 0 19 19" fill="none" xmlns="http://www.w3.org/2000/svg">
<path fill-rule="evenodd" clip-rule="evenodd" d="M9.50008 0.791687C4.6906 0.791687 0.791748 4.69054 0.791748 9.50002C0.791748 14.3095 4.6906 18.2084 9.50008 18.2084C14.3096 18.2084 18.2084 14.3095 18.2084 9.50002C18.2084 4.69054 14.3096 0.791687 9.50008 0.791687ZM12.0368 12.128C13.1159 11.1146 14.6289 10.3287 16.5836 10.2736C16.2267 13.5792 13.6089 16.2072 10.308 16.5797C10.4131 14.5229 11.0249 13.0784 12.0368 12.128ZM8.72286 16.5831C8.82996 14.2145 9.53653 12.304 10.9529 10.9738C12.2955 9.71299 14.1855 8.74646 16.5795 8.68973C16.2054 5.38516 13.5709 2.76575 10.2593 2.41499C10.1049 4.78564 9.42706 6.70471 8.12939 8.06834C6.80996 9.45475 4.86001 10.1487 2.41664 10.2741C2.77485 13.5897 5.40766 16.2235 8.72286 16.5831ZM8.67175 2.42265C8.52002 4.49978 7.92639 5.98488 6.98241 6.97684C6.05205 7.95442 4.57559 8.56475 2.42081 8.68834C2.79286 5.40745 5.39316 2.80224 8.67175 2.42265Z" fill="#F44B74"/>
</svg>
