<svg width="19" height="18" viewBox="0 0 19 18" fill="none" xmlns="http://www.w3.org/2000/svg">
<path fill-rule="evenodd" clip-rule="evenodd" d="M14.6459 2.37508C13.9901 2.37508 13.4584 2.90674 13.4584 3.56258C13.4584 4.21842 13.9901 4.75008 14.6459 4.75008C15.3018 4.75008 15.8334 4.21842 15.8334 3.56258C15.8334 2.90674 15.3018 2.37508 14.6459 2.37508ZM11.8751 3.56258C11.8751 2.03229 13.1156 0.791748 14.6459 0.791748C16.1762 0.791748 17.4167 2.03229 17.4167 3.56258C17.4167 5.09287 16.1762 6.33342 14.6459 6.33342C13.1156 6.33342 11.8751 5.09287 11.8751 3.56258ZM7.13206 3.16678C7.44911 3.16957 7.73391 3.36126 7.85585 3.65393L11.001 11.2022L11.9157 8.45807C12.0135 8.16476 12.273 7.95521 12.5804 7.92148C12.8877 7.88774 13.1865 8.036 13.3456 8.30111L18.0956 16.2178C18.2423 16.4623 18.2462 16.7669 18.1057 17.0151C17.9651 17.2633 17.702 17.4167 17.4167 17.4167H1.58342C1.31625 17.4167 1.0671 17.282 0.920868 17.0584C0.774633 16.8348 0.75104 16.5525 0.858126 16.3078L6.39979 3.6411C6.52688 3.35062 6.81501 3.16399 7.13206 3.16678ZM2.79389 15.8334H16.0185L12.8735 10.5917L11.8345 13.7088C11.7301 14.022 11.4422 14.2375 11.1123 14.2496C10.7824 14.2616 10.4796 14.0677 10.3526 13.7629L7.10733 5.97413L2.79389 15.8334Z" fill="#F44B74"/>
</svg>
