<svg width="19" height="18" viewBox="0 0 19 18" fill="none" xmlns="http://www.w3.org/2000/svg">
<path fill-rule="evenodd" clip-rule="evenodd" d="M14.6459 2.37496C13.9901 2.37496 13.4584 2.90662 13.4584 3.56246C13.4584 4.2183 13.9901 4.74996 14.6459 4.74996C15.3018 4.74996 15.8334 4.2183 15.8334 3.56246C15.8334 2.90662 15.3018 2.37496 14.6459 2.37496ZM11.8751 3.56246C11.8751 2.03217 13.1156 0.791626 14.6459 0.791626C16.1762 0.791626 17.4167 2.03217 17.4167 3.56246C17.4167 5.09275 16.1762 6.33329 14.6459 6.33329C13.1156 6.33329 11.8751 5.09275 11.8751 3.56246ZM7.13206 3.16666C7.44911 3.16945 7.73391 3.36113 7.85585 3.65381L11.001 11.2021L11.9157 8.45795C12.0135 8.16464 12.273 7.95509 12.5804 7.92135C12.8877 7.88762 13.1865 8.03587 13.3456 8.30098L18.0956 16.2177C18.2423 16.4622 18.2462 16.7668 18.1057 17.015C17.9651 17.2632 17.702 17.4166 17.4167 17.4166H1.58342C1.31625 17.4166 1.0671 17.2819 0.920868 17.0583C0.774633 16.8347 0.75104 16.5524 0.858126 16.3076L6.39979 3.64098C6.52688 3.3505 6.81501 3.16386 7.13206 3.16666ZM2.79389 15.8333H16.0185L12.8735 10.5916L11.8345 13.7086C11.7301 14.0218 11.4422 14.2374 11.1123 14.2494C10.7824 14.2615 10.4796 14.0675 10.3526 13.7628L7.10733 5.97401L2.79389 15.8333Z" fill="white"/>
</svg>
