<svg width="19" height="18" viewBox="0 0 19 18" fill="none" xmlns="http://www.w3.org/2000/svg">
<path d="M6.33342 9.49996C6.77064 9.49996 7.12508 9.8544 7.12508 10.2916V11.0833H7.91675C8.35397 11.0833 8.70842 11.4377 8.70842 11.875C8.70842 12.3122 8.35397 12.6666 7.91675 12.6666H7.12508V13.4583C7.12508 13.8955 6.77064 14.25 6.33342 14.25C5.89619 14.25 5.54175 13.8955 5.54175 13.4583V12.6666H4.75008C4.31286 12.6666 3.95842 12.3122 3.95842 11.875C3.95842 11.4377 4.31286 11.0833 4.75008 11.0833H5.54175V10.2916C5.54175 9.8544 5.89619 9.49996 6.33342 9.49996Z" fill="#F44B74"/>
<path fill-rule="evenodd" clip-rule="evenodd" d="M12.6667 9.49996C11.3551 9.49996 10.2917 10.5633 10.2917 11.875C10.2917 13.1866 11.3551 14.25 12.6667 14.25C13.9784 14.25 15.0417 13.1866 15.0417 11.875C15.0417 10.5633 13.9784 9.49996 12.6667 9.49996ZM11.8751 11.875C11.8751 11.4377 12.2295 11.0833 12.6667 11.0833C13.104 11.0833 13.4584 11.4377 13.4584 11.875C13.4584 12.3122 13.104 12.6666 12.6667 12.6666C12.2295 12.6666 11.8751 12.3122 11.8751 11.875Z" fill="#F44B74"/>
<path fill-rule="evenodd" clip-rule="evenodd" d="M12.6667 0.791626C13.104 0.791626 13.4584 1.14607 13.4584 1.58329V3.8452C13.4584 4.28242 13.104 4.63686 12.6667 4.63686H10.2917V6.33329H12.6667C15.7273 6.33329 18.2084 8.81438 18.2084 11.875C18.2084 14.9355 15.7273 17.4166 12.6667 17.4166H6.33342C3.27284 17.4166 0.791748 14.9355 0.791748 11.875C0.791748 8.81438 3.27284 6.33329 6.33342 6.33329H8.70842V3.8452C8.70842 3.40797 9.06286 3.05353 9.50008 3.05353H11.8751V1.58329C11.8751 1.14607 12.2295 0.791626 12.6667 0.791626ZM6.33342 7.91663C4.14729 7.91663 2.37508 9.68883 2.37508 11.875C2.37508 14.0611 4.14729 15.8333 6.33342 15.8333H12.6667C14.8529 15.8333 16.6251 14.0611 16.6251 11.875C16.6251 9.68883 14.8529 7.91663 12.6667 7.91663H6.33342Z" fill="#F44B74"/>
</svg>
