<svg width="19" height="17" viewBox="0 0 19 17" fill="none" xmlns="http://www.w3.org/2000/svg">
<path fill-rule="evenodd" clip-rule="evenodd" d="M9.50008 1.77083C7.31395 1.77083 5.54175 3.54304 5.54175 5.72917C5.54175 5.74789 5.54188 5.76657 5.54214 5.78523C5.80057 5.74828 6.06476 5.72917 6.33342 5.72917C7.51088 5.72917 8.60258 6.09639 9.50022 6.72256C10.3978 6.09651 11.4894 5.72936 12.6667 5.72936C12.9354 5.72936 13.1996 5.74848 13.458 5.78543C13.4583 5.76671 13.4584 5.74795 13.4584 5.72917C13.4584 3.54304 11.6862 1.77083 9.50008 1.77083ZM15.0175 6.2512C15.0335 6.07935 15.0417 5.90522 15.0417 5.72917C15.0417 2.66859 12.5607 0.1875 9.50008 0.1875C6.4395 0.1875 3.95842 2.66859 3.95842 5.72917C3.95842 5.90515 3.96662 6.07922 3.98266 6.25101C2.09735 7.13542 0.791748 9.05066 0.791748 11.2708C0.791748 14.3314 3.27284 16.8125 6.33342 16.8125C7.51076 16.8125 8.60235 16.4454 9.49994 15.8193C10.3976 16.4455 11.4893 16.8127 12.6667 16.8127C15.7273 16.8127 18.2084 14.3316 18.2084 11.271C18.2084 9.05085 16.9028 7.1356 15.0175 6.2512ZM13.1178 7.33811C12.9697 7.32132 12.8193 7.3127 12.6667 7.3127C11.9457 7.3127 11.2697 7.50548 10.6875 7.84231C11.0035 8.24313 11.2654 8.68864 11.4621 9.1678C12.1906 8.75123 12.774 8.10981 13.1178 7.33811ZM11.8508 10.749C13.104 10.1611 14.101 9.11788 14.6287 7.83236C15.8213 8.51429 16.6251 9.7988 16.6251 11.271C16.6251 13.4572 14.8529 15.2294 12.6667 15.2294C11.9456 15.2294 11.2696 15.0365 10.6873 14.6996C11.4312 13.7563 11.8751 12.5654 11.8751 11.2708C11.8751 11.0948 11.8669 10.9208 11.8508 10.749ZM9.95117 9.66208C9.82948 9.38884 9.67774 9.13193 9.50016 8.89555C9.32255 9.13193 9.17079 9.38884 9.04908 9.66209C9.19709 9.67888 9.34758 9.6875 9.50008 9.6875C9.65261 9.6875 9.80313 9.67887 9.95117 9.66208ZM8.70881 11.2148C8.96724 11.2517 9.23143 11.2708 9.50008 11.2708C9.76873 11.2708 10.0329 11.2517 10.2914 11.2148C10.2916 11.2334 10.2917 11.2521 10.2917 11.2708C10.2917 12.1622 9.99715 12.9847 9.50001 13.6463C9.00296 12.9847 8.70842 12.1623 8.70842 11.271C8.70842 11.2522 8.70855 11.2335 8.70881 11.2148ZM7.53812 9.16784C7.73485 8.68863 7.99679 8.24308 8.3129 7.84224C7.73061 7.50533 7.05453 7.3125 6.33342 7.3125C6.18089 7.3125 6.03037 7.32113 5.88233 7.33792C6.22606 8.10973 6.80952 8.75123 7.53812 9.16784ZM4.37139 7.8322C4.89911 9.1178 5.89616 10.1611 7.14935 10.749C7.13329 10.9209 7.12508 11.095 7.12508 11.271C7.12508 12.5655 7.56891 13.7563 8.31269 14.6996C7.73044 15.0364 7.05444 15.2292 6.33342 15.2292C4.14729 15.2292 2.37508 13.457 2.37508 11.2708C2.37508 9.79863 3.17879 8.51414 4.37139 7.8322Z" fill="#F44B74"/>
</svg>
