<svg xmlns="http://www.w3.org/2000/svg" viewBox="0 0 24 24" fill="#F7931A">
  <path d="M12 0C5.373 0 0 5.373 0 12s5.373 12 12 12 12-5.373 12-12S18.627 0 12 0zm.5 17.5c-2.5 0-4.5-2-4.5-4.5s2-4.5 4.5-4.5c1.5 0 2.7.7 3.5 1.8l1.3-1.3c-1.2-1.4-2.9-2.3-4.8-2.3-3.6 0-6.5 2.9-6.5 6.5s2.9 6.5 6.5 6.5c2.1 0 4-1 5.2-2.6l-1.3-1.3c-.8 1.2-2.1 1.9-3.7 1.9z"/>
  <path d="M14.5 10.5h-2v-2h-1v2h-1v1h1v2h-1v1h1v2h1v-2h2c.8 0 1.5-.7 1.5-1.5s-.7-1.5-1.5-1.5c.8 0 1.5-.7 1.5-1.5s-.7-1.5-1.5-1.5zm0 3h-2v-2h2c.3 0 .5.2.5.5s-.2.5-.5.5zm0-3h-2v-2h2c.3 0 .5.2.5.5s-.2.5-.5.5z"/>
</svg>
