<svg id="Layer_1" data-name="Layer 1" xmlns="http://www.w3.org/2000/svg" viewBox="0 0 133.18 72.5"><defs><style>.cls-1{fill:#fff;}.cls-2{fill:#e02337;}</style></defs><path class="cls-1" d="M3.05,34.32a3.51,3.51,0,0,1,.79-1.81,11.39,11.39,0,0,1,1.9-1.76L33.82,10.6a1.61,1.61,0,0,1,.84-.32,1.37,1.37,0,0,1,1.14.38,1.32,1.32,0,0,1,.34,1.16l-.65,4.34a3.92,3.92,0,0,1-.93,2,10.78,10.78,0,0,1-2,1.77L10.15,36.07l19,12.45c1.56,1,2.24,2.08,2,3.31l-.3,3a2,2,0,0,1-.68,1.25,1.9,1.9,0,0,1-1.21.58,1.24,1.24,0,0,1-.8-.17L4.57,40.85A4.12,4.12,0,0,1,3,39.48a3,3,0,0,1-.4-1.79Z" transform="translate(-2.63 -0.66)"/><path class="cls-1" d="M135.35,33.87a3.42,3.42,0,0,1-.7,1.88,10.19,10.19,0,0,1-1.91,1.68L104.66,57.58a2,2,0,0,1-.92.32,1.33,1.33,0,0,1-1.13-.37,1.46,1.46,0,0,1-.26-1.17l.5-4.25q.3-1.94,3-3.75L128.5,32.17,109.31,19.42c-1.56-1-2.26-2.08-2.1-3.31l.39-2.73a1.75,1.75,0,0,1,.53-1.23,2.19,2.19,0,0,1,1.29-.59,1.56,1.56,0,0,1,.88.16l23.62,15.61a3.44,3.44,0,0,1,1.87,2.45,2.28,2.28,0,0,1,0,.72Z" transform="translate(-2.63 -0.66)"/><path class="cls-2" d="M94.19,3.62A4.38,4.38,0,0,1,97.9.91l2.74-.24A1.25,1.25,0,0,1,102.17,2,2,2,0,0,1,102,3L67.62,70.2a4.35,4.35,0,0,1-3.71,2.7l-2.74.25a1.25,1.25,0,0,1-1.53-1.3,2,2,0,0,1,.22-1Z" transform="translate(-2.63 -0.66)"/></svg>