<svg width="138" height="74" viewBox="0 0 138 74" fill="none" xmlns="http://www.w3.org/2000/svg">
<path d="M3.05186 34.3195C3.14913 33.6235 3.4122 33.0187 3.84108 32.5051C4.31761 31.9345 4.9508 31.35 5.74066 30.7518L33.822 10.595C34.0694 10.4146 34.3498 10.3107 34.6631 10.2831C35.1331 10.2418 35.5124 10.3671 35.8009 10.659C36.0894 10.9509 36.202 11.3376 36.1387 11.8191L35.4904 16.1592C35.3932 16.8552 35.0824 17.5171 34.5583 18.1448C34.0817 18.7155 33.4224 19.3023 32.5803 19.9051L10.1507 36.0749L29.152 48.523C30.7102 49.4965 31.3851 50.6005 31.1769 51.835L30.8821 54.7957C30.8188 55.2771 30.5919 55.6937 30.2016 56.0453C29.8634 56.3923 29.4594 56.5864 28.9894 56.6277C28.676 56.6553 28.4081 56.5995 28.1855 56.4605L4.56752 40.849C3.84752 40.4364 3.33412 39.9792 3.02732 39.4773C2.72053 38.9755 2.58966 38.3789 2.6347 37.6875L3.05186 34.3195Z" fill="white"/>
<path d="M135.355 33.8654C135.31 34.5568 135.075 35.1856 134.651 35.7517C134.222 36.2653 133.586 36.8235 132.744 37.4263L104.663 57.5831C104.363 57.7681 104.057 57.8743 103.743 57.9019C103.273 57.9432 102.894 57.8179 102.606 57.526C102.369 57.2295 102.283 56.8405 102.346 56.359L102.845 52.1113C103.048 50.8243 104.044 49.5734 105.833 48.3586L128.498 32.1681L109.312 19.4189C107.754 18.4454 107.053 17.3437 107.209 16.1138L107.603 13.3824C107.614 12.9055 107.788 12.4936 108.127 12.1466C108.517 11.795 108.947 11.5985 109.417 11.5572C109.73 11.5297 110.025 11.5831 110.299 11.7176L133.917 27.3291C135.087 28.0723 135.711 28.89 135.788 29.7821C135.816 30.0969 135.81 30.3354 135.772 30.4974L135.355 33.8654Z" fill="white"/>
<path d="M94.1875 3.61595C94.9904 1.959 96.2274 1.05708 97.8985 0.91016L100.64 0.669127C101.58 0.586486 102.091 1.01745 102.173 1.96204C102.201 2.2769 102.126 2.62718 101.949 3.01288L67.6223 70.1991C66.8194 71.8561 65.5823 72.758 63.9112 72.9049L61.1696 73.1459C60.2296 73.2286 59.7185 72.7976 59.6363 71.853C59.6089 71.5382 59.6836 71.1879 59.8605 70.8022L94.1875 3.61595Z" fill="#E02337"/>
</svg>
