<svg width="19" height="17" viewBox="0 0 19 17" fill="none" xmlns="http://www.w3.org/2000/svg">
<path fill-rule="evenodd" clip-rule="evenodd" d="M6.41699 1.021C6.5511 0.752793 6.82522 0.583374 7.12508 0.583374H11.8751C12.1749 0.583374 12.4491 0.752793 12.5832 1.021L13.5519 2.95837H16.2292C17.3223 2.95837 18.2084 3.84448 18.2084 4.93754V14.4375C18.2084 15.5306 17.3223 16.4167 16.2292 16.4167H2.77091C1.67785 16.4167 0.791748 15.5306 0.791748 14.4375V4.93754C0.791748 3.84448 1.67785 2.95837 2.77091 2.95837H5.44831L6.41699 1.021ZM7.21853 2.95837H11.7816L11.3858 2.16671H7.61436L7.21853 2.95837ZM2.77091 4.54171C2.5523 4.54171 2.37508 4.71893 2.37508 4.93754V14.4375C2.37508 14.6562 2.5523 14.8334 2.77091 14.8334H16.2292C16.4479 14.8334 16.6251 14.6562 16.6251 14.4375V4.93754C16.6251 4.71893 16.4479 4.54171 16.2292 4.54171H2.77091ZM5.54175 9.68754C5.54175 7.5014 7.31395 5.72921 9.50008 5.72921C11.6862 5.72921 13.4584 7.5014 13.4584 9.68754C13.4584 11.8737 11.6862 13.6459 9.50008 13.6459C7.31395 13.6459 5.54175 11.8737 5.54175 9.68754ZM9.50008 7.31254C8.1884 7.31254 7.12508 8.37586 7.12508 9.68754C7.12508 10.9992 8.1884 12.0625 9.50008 12.0625C10.8118 12.0625 11.8751 10.9992 11.8751 9.68754C11.8751 8.37586 10.8118 7.31254 9.50008 7.31254Z" fill="white"/>
</svg>
