<svg width="12" height="19" viewBox="0 0 12 19" fill="none" xmlns="http://www.w3.org/2000/svg">
<path fill-rule="evenodd" clip-rule="evenodd" d="M2.29725 1.11777C2.44623 0.912938 2.68422 0.791748 2.9375 0.791748H9.27083C9.52412 0.791748 9.76211 0.91294 9.91108 1.11778C9.23147 1.61204 9.26451 1.58801 9.91108 1.11778L9.91299 1.12041L9.91594 1.1245L9.92488 1.13704C9.93215 1.1473 9.94204 1.16139 9.95429 1.17915C9.97879 1.21466 10.0128 1.26494 10.0543 1.32892C10.1374 1.45676 10.251 1.63994 10.3796 1.86984C10.6359 2.32801 10.9564 2.98026 11.2106 3.75628C11.4568 4.50745 11.6458 5.38977 11.6458 6.33342C11.6458 7.10969 11.4804 7.85461 11.1832 8.53149C10.4319 10.2431 8.8286 11.5366 6.89583 11.818V16.6251H10.0625C10.4997 16.6251 10.8542 16.9795 10.8542 17.4167C10.8542 17.854 10.4997 18.2084 10.0625 18.2084H2.14583C1.70861 18.2084 1.35417 17.854 1.35417 17.4167C1.35417 16.9795 1.70861 16.6251 2.14583 16.6251H5.3125V11.819C3.46383 11.5545 1.91052 10.3776 1.12171 8.76186C0.763312 8.02763 0.5625 7.20282 0.5625 6.33342C0.5625 5.27848 0.798803 4.29942 1.08793 3.49324C1.34001 2.79043 1.63768 2.20391 1.87244 1.79239C1.99018 1.58601 2.09308 1.42193 2.16803 1.30739C2.20553 1.25008 2.23612 1.20504 2.25818 1.17316C2.26921 1.15722 2.27811 1.14456 2.28469 1.1353L2.29279 1.12395L2.29549 1.12021L2.29649 1.11883L2.29725 1.11777ZM3.36654 2.37508C3.33013 2.43501 3.29021 2.50248 3.24772 2.57697C3.04681 2.92914 2.79229 3.43117 2.57832 4.02776M3.36654 2.37508H8.84179C8.88865 2.45222 8.94132 2.54184 8.9978 2.64281C9.21801 3.03647 9.49129 3.5939 9.70602 4.24927C9.86173 4.72449 9.98386 5.24279 10.0356 5.78154C9.78497 5.8569 9.46111 5.9394 9.09788 5.99675C8.23088 6.13364 7.26674 6.10772 6.51148 5.65457C5.28757 4.92022 3.87671 4.94614 2.86351 5.10612C2.64538 5.14056 2.43976 5.18215 2.25099 5.22634C2.32902 4.80383 2.44473 4.40024 2.57832 4.02776M2.54454 8.06724C2.36567 7.70078 2.24163 7.30236 2.18346 6.88207L2.54454 8.06724ZM2.18346 6.88207C2.43256 6.80759 2.75238 6.72662 3.11045 6.67008C3.97745 6.53319 4.94159 6.55911 5.69686 7.01226C6.92076 7.74661 8.33162 7.72069 9.34482 7.56071C9.53963 7.52995 9.72447 7.49349 9.89624 7.45457C9.85069 7.60497 9.79623 7.75201 9.73344 7.89505C9.11861 9.2958 7.71823 10.2917 6.10417 10.2917C4.54126 10.2917 3.18838 9.38599 2.54454 8.06724" fill="white"/>
</svg>
