<svg width="12" height="19" viewBox="0 0 12 19" fill="none" xmlns="http://www.w3.org/2000/svg">
<path fill-rule="evenodd" clip-rule="evenodd" d="M2.29725 1.11765C2.44623 0.912816 2.68422 0.791626 2.9375 0.791626H9.27083C9.52412 0.791626 9.76211 0.912818 9.91108 1.11766C9.23147 1.61192 9.26451 1.58789 9.91108 1.11766L9.91299 1.12029L9.91594 1.12438L9.92488 1.13691C9.93215 1.14718 9.94204 1.16126 9.95429 1.17902C9.97879 1.21454 10.0128 1.26482 10.0543 1.32879C10.1374 1.45664 10.251 1.63982 10.3796 1.86971C10.6359 2.32788 10.9564 2.98014 11.2106 3.75616C11.4568 4.50733 11.6458 5.38965 11.6458 6.33329C11.6458 7.10956 11.4804 7.85449 11.1832 8.53136C10.4319 10.243 8.8286 11.5365 6.89583 11.8178V16.625H10.0625C10.4997 16.625 10.8542 16.9794 10.8542 17.4166C10.8542 17.8539 10.4997 18.2083 10.0625 18.2083H2.14583C1.70861 18.2083 1.35417 17.8539 1.35417 17.4166C1.35417 16.9794 1.70861 16.625 2.14583 16.625H5.3125V11.8188C3.46383 11.5544 1.91052 10.3775 1.12171 8.76174C0.763312 8.02751 0.5625 7.20269 0.5625 6.33329C0.5625 5.27836 0.798803 4.2993 1.08793 3.49312C1.34001 2.79031 1.63768 2.20379 1.87244 1.79227C1.99018 1.58588 2.09308 1.42181 2.16803 1.30727C2.20553 1.24996 2.23612 1.20491 2.25818 1.17304C2.26921 1.1571 2.27811 1.14444 2.28469 1.13518L2.29279 1.12383L2.29549 1.12009L2.29649 1.11871L2.29725 1.11765ZM3.36654 2.37496C3.33013 2.43489 3.29021 2.50236 3.24772 2.57684C3.04681 2.92902 2.79229 3.43105 2.57832 4.02763M3.36654 2.37496H8.84179C8.88865 2.4521 8.94132 2.54172 8.9978 2.64269C9.21801 3.03635 9.49129 3.59378 9.70602 4.24915C9.86173 4.72437 9.98386 5.24266 10.0356 5.78142C9.78497 5.85678 9.46111 5.93928 9.09788 5.99663C8.23088 6.13352 7.26674 6.1076 6.51148 5.65444C5.28757 4.9201 3.87671 4.94602 2.86351 5.106C2.64538 5.14044 2.43976 5.18202 2.25099 5.22622C2.32902 4.8037 2.44473 4.40012 2.57832 4.02763M2.54454 8.06711C2.36567 7.70065 2.24163 7.30224 2.18346 6.88195L2.54454 8.06711ZM2.18346 6.88195C2.43256 6.80747 2.75238 6.7265 3.11045 6.66996C3.97745 6.53306 4.94159 6.55898 5.69686 7.01214C6.92076 7.74648 8.33162 7.72056 9.34482 7.56058C9.53963 7.52982 9.72447 7.49337 9.89624 7.45445C9.85069 7.60485 9.79623 7.75189 9.73344 7.89493C9.11861 9.29568 7.71823 10.2916 6.10417 10.2916C4.54126 10.2916 3.18838 9.38587 2.54454 8.06711" fill="#F44B74"/>
</svg>
