<svg width="15" height="19" viewBox="0 0 15 19" fill="none" xmlns="http://www.w3.org/2000/svg">
<path fill-rule="evenodd" clip-rule="evenodd" d="M3.93742 4.35419C3.93742 2.38668 5.5324 0.791687 7.49992 0.791687C9.46744 0.791687 11.0624 2.38668 11.0624 4.35419V9.50002C11.0624 11.4675 9.46743 13.0625 7.49992 13.0625C5.5324 13.0625 3.93742 11.4675 3.93742 9.50002V4.35419ZM7.49992 2.37502C6.40685 2.37502 5.52075 3.26112 5.52075 4.35419V9.50002C5.52075 10.5931 6.40685 11.4792 7.49992 11.4792C8.59298 11.4792 9.47908 10.5931 9.47908 9.50002V4.35419C9.47908 3.26112 8.59298 2.37502 7.49992 2.37502ZM1.56242 8.31252C1.99964 8.31252 2.35409 8.66696 2.35409 9.10419C2.35409 11.9462 4.65794 14.25 7.49992 14.25C10.3419 14.25 12.6458 11.9462 12.6458 9.10419C12.6458 8.66696 13.0002 8.31252 13.4374 8.31252C13.8746 8.31252 14.2291 8.66696 14.2291 9.10419C14.2291 12.5528 11.6349 15.3955 8.29158 15.7873V17.4167C8.29158 17.8539 7.93714 18.2084 7.49992 18.2084C7.06269 18.2084 6.70825 17.8539 6.70825 17.4167V15.7873C3.3649 15.3955 0.770752 12.5528 0.770752 9.10419C0.770752 8.66696 1.12519 8.31252 1.56242 8.31252Z" fill="#F44B74"/>
</svg>
