<svg width="19" height="19" viewBox="0 0 19 19" fill="none" xmlns="http://www.w3.org/2000/svg">
<path fill-rule="evenodd" clip-rule="evenodd" d="M9.50008 0.791748C4.6906 0.791748 0.791748 4.6906 0.791748 9.50008C0.791748 14.3096 4.6906 18.2084 9.50008 18.2084C14.3096 18.2084 18.2084 14.3096 18.2084 9.50008C18.2084 4.6906 14.3096 0.791748 9.50008 0.791748ZM12.0368 12.128C13.1159 11.1147 14.6289 10.3288 16.5836 10.2736C16.2267 13.5793 13.6089 16.2072 10.308 16.5798C10.4131 14.523 11.0249 13.0784 12.0368 12.128ZM8.72286 16.5832C8.82996 14.2146 9.53653 12.3041 10.9529 10.9739C12.2955 9.71305 14.1855 8.74652 16.5795 8.68979C16.2054 5.38522 13.5709 2.76581 10.2593 2.41505C10.1049 4.7857 9.42706 6.70477 8.12939 8.0684C6.80996 9.45481 4.86001 10.1488 2.41664 10.2741C2.77485 13.5898 5.40766 16.2235 8.72286 16.5832ZM8.67175 2.42272C8.52002 4.49984 7.92639 5.98494 6.98241 6.9769C6.05205 7.95448 4.57559 8.56481 2.42081 8.6884C2.79286 5.40751 5.39316 2.8023 8.67175 2.42272Z" fill="white"/>
</svg>
